<?xml version="1.0" encoding="UTF-8" standalone="no"?>
<svg
   xmlns:dc="http://purl.org/dc/elements/1.1/"
   xmlns:cc="http://creativecommons.org/ns#"
   xmlns:rdf="http://www.w3.org/1999/02/22-rdf-syntax-ns#"
   xmlns:svg="http://www.w3.org/2000/svg"
   xmlns="http://www.w3.org/2000/svg"
   xmlns:xlink="http://www.w3.org/1999/xlink"
   xmlns:sodipodi="http://sodipodi.sourceforge.net/DTD/sodipodi-0.dtd"
   xmlns:inkscape="http://www.inkscape.org/namespaces/inkscape"
   inkscape:export-ydpi="29.71772"
   inkscape:export-xdpi="29.71772"
   inkscape:export-filename="C:\Users\PaulRainbow\Documents\RunningStars\Images\!Current Logos\StarOnly\GoldShoes512GlobalGold.png"
   inkscape:version="1.0 (4035a4fb49, 2020-05-01)"
   sodipodi:docname="GoldShoesGlobalGold.svg"
   viewBox="0 0 1653.9626 1653.9626"
   height="1653.9626"
   width="1653.9626"
   id="svg2830"
   version="1.1">
  <metadata
     id="metadata2836">
    <rdf:RDF>
      <cc:Work
         rdf:about="">
        <dc:format>image/svg+xml</dc:format>
        <dc:type
           rdf:resource="http://purl.org/dc/dcmitype/StillImage" />
        <dc:title />
      </cc:Work>
    </rdf:RDF>
  </metadata>
  <defs
     id="defs2834">
    <linearGradient
       id="linearGradient1229"
       inkscape:collect="always">
      <stop
         id="stop1225"
         offset="0"
         style="stop-color:#232803;stop-opacity:1" />
      <stop
         style="stop-color:#886a16;stop-opacity:1"
         offset="0.05020326"
         id="stop1235" />
      <stop
         id="stop1239"
         offset="0.10443726"
         style="stop-color:#886a16;stop-opacity:1" />
      <stop
         style="stop-color:#a68c29;stop-opacity:1"
         offset="0.14181112"
         id="stop1241" />
      <stop
         id="stop1243"
         offset="0.20566493"
         style="stop-color:#ccb54a;stop-opacity:1" />
      <stop
         style="stop-color:#ebdb66;stop-opacity:1"
         offset="0.25907025"
         id="stop1245" />
      <stop
         id="stop1247"
         offset="0.354711"
         style="stop-color:#f5ec70;stop-opacity:1" />
      <stop
         style="stop-color:#d1be4c;stop-opacity:1"
         offset="0.42996624"
         id="stop1233" />
      <stop
         id="stop1249"
         offset="0.54562283"
         style="stop-color:#bb9c33;stop-opacity:1" />
      <stop
         style="stop-color:#a88e2a;stop-opacity:1"
         offset="0.60578603"
         id="stop1251" />
      <stop
         id="stop1253"
         offset="0.70952976"
         style="stop-color:#caae44;stop-opacity:1" />
      <stop
         style="stop-color:#daca56;stop-opacity:1"
         offset="0.75171882"
         id="stop1255" />
      <stop
         id="stop1257"
         offset="0.83194733"
         style="stop-color:#d0bb49;stop-opacity:1" />
      <stop
         style="stop-color:#bb9c33;stop-opacity:1"
         offset="0.85961235"
         id="stop1259" />
      <stop
         id="stop1261"
         offset="0.94156992"
         style="stop-color:#896c1a;stop-opacity:1" />
      <stop
         id="stop1227"
         offset="1"
         style="stop-color:#232803;stop-opacity:1" />
    </linearGradient>
    <linearGradient
       gradientTransform="matrix(0.79853047,0.01192428,-0.01192428,0.79853047,-388.5487,-231.40493)"
       inkscape:collect="always"
       xlink:href="#linearGradient1229"
       id="linearGradient3736"
       gradientUnits="userSpaceOnUse"
       x1="561.88257"
       y1="914.06702"
       x2="2039.9167"
       y2="891.99585" />
    <linearGradient
       gradientTransform="matrix(0.79853047,0.01192428,-0.01192428,0.79853047,-388.5487,-231.40493)"
       y2="927.15771"
       x2="1918.6711"
       y1="909.70538"
       x1="650.1012"
       gradientUnits="userSpaceOnUse"
       id="linearGradient4030"
       xlink:href="#linearGradient1229"
       inkscape:collect="always" />
    <linearGradient
       gradientTransform="matrix(0.79853047,0.01192428,-0.01192428,0.79853047,-388.5487,-231.40493)"
       y2="927.15771"
       x2="1918.6711"
       y1="909.70538"
       x1="650.1012"
       gradientUnits="userSpaceOnUse"
       id="linearGradient4032"
       xlink:href="#linearGradient1229"
       inkscape:collect="always" />
    <linearGradient
       gradientTransform="matrix(0.79853047,0.01192428,-0.01192428,0.79853047,-388.5487,-231.40493)"
       y2="927.15771"
       x2="1918.6711"
       y1="909.70538"
       x1="650.1012"
       gradientUnits="userSpaceOnUse"
       id="linearGradient4034"
       xlink:href="#linearGradient1229"
       inkscape:collect="always" />
    <linearGradient
       gradientTransform="matrix(0.79853047,0.01192428,-0.01192428,0.79853047,-388.5487,-231.40493)"
       y2="927.15771"
       x2="1918.6711"
       y1="909.70538"
       x1="650.1012"
       gradientUnits="userSpaceOnUse"
       id="linearGradient4036"
       xlink:href="#linearGradient1229"
       inkscape:collect="always" />
    <linearGradient
       gradientTransform="matrix(0.79853047,0.01192428,-0.01192428,0.79853047,-388.5487,-231.40493)"
       y2="927.15771"
       x2="1918.6711"
       y1="909.70538"
       x1="650.1012"
       gradientUnits="userSpaceOnUse"
       id="linearGradient4038"
       xlink:href="#linearGradient1229"
       inkscape:collect="always" />
    <linearGradient
       gradientTransform="matrix(0.79853047,0.01192428,-0.01192428,0.79853047,-388.5487,-231.40493)"
       y2="927.15771"
       x2="1918.6711"
       y1="909.70538"
       x1="650.1012"
       gradientUnits="userSpaceOnUse"
       id="linearGradient4040"
       xlink:href="#linearGradient1229"
       inkscape:collect="always" />
    <radialGradient
       gradientTransform="matrix(2.2484273,0,0,2.1727167,-786.14986,-737.63312)"
       gradientUnits="userSpaceOnUse"
       r="826.98151"
       fy="628.99518"
       fx="629.71216"
       cy="628.99518"
       cx="629.71216"
       id="radialGradient10916"
       xlink:href="#linearGradient1229"
       inkscape:collect="always" />
  </defs>
  <sodipodi:namedview
     inkscape:guide-bbox="true"
     showguides="true"
     inkscape:snap-nodes="true"
     inkscape:object-nodes="false"
     inkscape:snap-others="true"
     inkscape:snap-to-guides="false"
     inkscape:snap-grids="false"
     inkscape:current-layer="g2838"
     inkscape:window-maximized="1"
     inkscape:window-y="-11"
     inkscape:window-x="-11"
     inkscape:cy="659.95441"
     inkscape:cx="1803.7868"
     inkscape:zoom="0.75065864"
     showgrid="false"
     id="namedview2832"
     inkscape:window-height="2066"
     inkscape:window-width="3840"
     inkscape:pageshadow="2"
     inkscape:pageopacity="0"
     guidetolerance="10"
     gridtolerance="10"
     objecttolerance="10"
     borderopacity="1"
     bordercolor="#666666"
     pagecolor="#ffffff"
     inkscape:document-rotation="0"
     fit-margin-top="200"
     fit-margin-left="200"
     fit-margin-right="200"
     fit-margin-bottom="200"
     inkscape:snap-bbox="true"
     inkscape:snap-page="true">
    <sodipodi:guide
       id="guide8202"
       orientation="1,0"
       position="827.27348,1403.5159" />
  </sodipodi:namedview>
  <g
     transform="translate(-4.0016021e-5,-3.002023e-5)"
     style="display:none"
     inkscape:label="background"
     id="layer11"
     inkscape:groupmode="layer">
    <rect
       inkscape:export-ydpi="96"
       inkscape:export-xdpi="96"
       y="0.50428849"
       x="-1.2418503"
       height="1611.2803"
       width="1657.8077"
       id="rect3437"
       style="fill:#000000;stroke-width:0.997988" />
  </g>
  <g
     style="display:inline"
     inkscape:label="Outer Border"
     id="layer1"
     inkscape:groupmode="layer" />
  <g
     style="display:inline"
     id="g2838"
     inkscape:label="Image"
     inkscape:groupmode="layer"
     transform="translate(197.26468,198.0332)">
    <rect
       y="-197.98634"
       x="-197.26935"
       height="1653.963"
       width="1653.963"
       id="rect8185"
       style="fill:url(#radialGradient10916);fill-opacity:1;stroke:none;stroke-width:1.29979" />
    <g
       id="g255">
      <path
         style="display:inline;fill:#000000;stroke:#000000;stroke-width:7.67303"
         d="m 625.86772,-3.01818 c -29.99153,-0.7102 -59.45886,15.60607 -73.83884,42.10328 -24.69995,43.34252 -23.48605,94.86693 -28.37886,142.8701 -2.8199,27.92834 -7.04636,56.72631 -23.31498,80.65649 -28.31174,46.24493 -64.60223,87.41446 -96.85377,130.45797 -30.13618,-15.82272 -65.45423,-13.98276 -98.20803,-18.76928 -35.27906,-4.64392 -70.4249,-11.42034 -106.17857,-10.76166 -38.33152,0.2473 -78.06808,-0.17446 -114.45742,13.45932 -29.53157,12.85822 -59.51025,30.42485 -76.74588,58.55834 -10.7919,20.12983 -11.65473,44.44246 -7.88667,66.53022 11.90742,35.48249 45.65791,57.55951 77.51143,73.56938 35.21793,15.91532 71.54518,29.46676 105.47829,48.15903 14.57463,6.68247 23.33839,21.29325 34.68074,32.19048 37.46882,42.37421 63.93342,92.92812 98.58627,137.44158 -19.91217,13.90253 -31.27475,35.88743 -40.46773,57.68663 -16.32456,39.8899 -37.042,77.5027 -53.98061,117.0478 -14.92267,42.5477 -30.67346,86.6401 -28.62042,132.4202 2.40595,30.3637 9.13399,62.2826 28.22264,86.7841 14.14546,13.8071 31.76878,24.7986 50.83986,30.2103 27.8126,5.1049 55.94279,-5.6539 77.25582,-23.2884 39.42759,-30.6443 66.93745,-73.2328 103.50236,-106.9018 17.78199,-18.4572 42.94227,-26.6512 66.08953,-36.151 45.12071,-16.5093 92.51881,-25.662 137.76495,-41.7885 15.47965,29.7891 44.63607,48.9618 67.60437,72.3506 32.69419,31.1908 64.19697,64.1784 102.52852,88.648 33.4014,21.7773 69.2255,44.619 110.2647,46.5817 24.5291,2.3361 51.5354,3.3061 72.50238,-11.9617 26.1234,-17.2374 47.2128,-47.108 42.9303,-79.7109 -5.4503,-53.7945 -42.4611,-96.2408 -66.34248,-142.6748 -11.5489,-21.0368 -22.8236,-43.5642 -23.1609,-67.9503 -3.6021,-56.8277 0.1119,-113.92794 0.6868,-171.0143 38.49838,-6.35147 69.19468,-32.82775 103.27638,-49.81824 38.4084,-19.64027 76.3613,-40.72679 109.5575,-68.55842 30.4247,-23.46029 58.1837,-52.12968 72.4351,-88.45702 11.8005,-25.49469 17.7895,-56.60763 4.5261,-82.7726 -10.8063,-27.39528 -35.8611,-49.1144 -65.563,-52.53394 -39.0607,-6.00154 -77.9372,3.77578 -115.5064,13.51052 -28.0397,5.77524 -55.9436,13.43065 -84.86538,11.41433 -63.8756,-10.03294 -122.5341,-38.77374 -183.8144,-57.61907 1.9142,-27.12197 2.1744,-54.85136 -6.01521,-81.08872 -8.64043,-31.84418 -11.35556,-64.16306 -18.46899,-96.28129 C 769.5191,153.2362 756.92606,115.2991 739.05983,79.94058 721.8035,48.07813 694.32934,22.31013 663.32654,4.01287 c -11.50197,-6.0052 -24.7054,-7.08816 -37.45882,-7.03105 z m 9.19729,41.98023 c 14.33627,0.91587 24.85042,12.97435 35.61594,20.84703 17.3778,14.33408 31.62682,32.41242 39.64658,53.61641 12.74983,27.91659 22.14798,57.53732 30.24197,87.14405 5.76772,33.26933 8.19135,67.21718 18.25816,99.64554 6.39911,21.67995 10.96432,45.37983 4.55604,67.56342 -3.0071,10.49485 -12.7595,18.75566 -13.43825,29.72955 3.84116,8.22226 14.73638,3.98628 21.7227,7.09686 27.2898,5.4899 52.97427,15.31246 79.07647,24.81754 28.0863,9.72623 55.1988,23.11248 84.2314,29.34753 20.1032,5.56933 40.7558,9.48602 61.242,13.13206 31.75578,-5.33818 64.12688,-7.5084 94.99878,-17.31996 26.8229,-8.71162 54.6118,-13.90085 82.6959,-11.83334 18.5194,-1.79689 37.8289,9.73936 43.4791,27.97733 4.7088,9.81946 7.4081,20.88009 3.1957,31.36339 -7.5401,26.67429 -20.1168,52.64582 -41.2774,71.19074 -22.9248,22.46346 -49.5747,40.1842 -75.7579,58.73905 -28.6271,16.52537 -60.2528,27.50848 -87.2455,46.95374 -23.40958,16.09454 -51.31128,33.57098 -80.99628,26.01433 -10.2443,-5.45678 -17.2839,3.97998 -13.4037,13.67297 2.7691,26.40289 3.0928,52.44892 1.0047,78.98194 0.6303,30.43417 -4.8889,60.87577 -2.136,91.53147 1.4873,23.0676 3.0483,46.4607 7.5247,69.0473 14.9633,32.5721 30.6023,64.9848 51.6698,94.144 14.4064,21.2485 26.17898,44.7829 32.23028,69.7755 1.1371,13.8266 1.958,29.534 -9.2917,39.8769 -9.09348,8.8909 -19.22678,19.7005 -33.26078,17.642 -25.5924,0.317 -52.6474,0.6225 -75.4917,-12.8189 -31.9213,-16.4369 -60.7335,-38.1722 -88.9665,-60.1409 -24.0467,-22.7189 -44.99012,-48.7467 -71.63839,-68.6769 -18.73787,-16.2343 -41.45022,-32.919 -45.55192,-59.1955 -1.41943,-6.812 1.16939,-20.1538 -9.94381,-18.7641 -24.66125,8.0781 -47.98778,20.6009 -73.71865,25.5258 -20.44603,6.2393 -40.82442,12.6913 -61.7756,17.1404 -26.29704,7.3655 -51.68699,17.4865 -76.38767,29.0874 -15.26463,6.5229 -29.73486,14.9319 -40.72816,27.6151 -25.24216,24.4428 -48.41407,50.8902 -69.92508,78.6423 -15.36477,14.6268 -30.99731,30.1423 -50.23605,39.5306 -13.84872,5.9199 -29.93799,4.2553 -42.13525,-4.6144 -13.41197,-6.2753 -20.43841,-19.9303 -23.38766,-33.8488 -9.38289,-28.0089 -8.8834,-57.4599 -1.79187,-85.7737 6.233,-28.1361 15.97913,-55.3667 25.50054,-82.5049 15.18595,-29.7994 33.23831,-58.3509 43.70292,-90.3619 8.5344,-23.2231 19.35655,-48.6091 43.19262,-59.7753 8.6459,-5.9325 20.99566,-7.5242 27.19508,-16.3357 2.51216,-9.5455 -10.50353,-8.86893 -14.271,-15.08657 -19.35691,-20.82903 -35.55303,-44.24895 -50.80382,-68.1537 -17.40569,-23.02437 -29.459,-49.81921 -49.23814,-71.05063 C 246.96593,631.02575 231.53185,610.34797 210.9131,595.72224 179.10278,577.53251 146.05161,561.43495 111.30166,549.65284 88.39412,540.72513 66.57281,527.98549 48.42074,511.37547 32.14393,495.55339 34.93747,469.27315 45.05832,450.9892 c 12.18749,-13.73501 28.96926,-22.66325 44.92771,-31.35496 34.13317,-15.42951 72.14593,-12.92591 108.67353,-13.85615 22.64645,-0.39328 45.26535,1.07581 67.60134,6.51941 33.51815,7.50525 68.18324,6.03776 101.86666,11.99234 15.99613,3.71022 29.11983,14.13038 40.74207,24.98838 9.45837,2.96633 12.69048,-10.61834 17.78888,-16.30719 14.36327,-25.15493 34.39855,-45.62041 51.07768,-69.21645 14.95244,-18.20253 31.32135,-35.39001 42.8848,-56.09151 11.72671,-18.69144 24.2562,-37.27464 32.87019,-57.62664 7.30484,-32.7695 13.00756,-66.01065 13.98482,-99.7481 0.67164,-25.52999 3.45998,-50.71869 12.16949,-74.97438 4.86277,-17.59654 18.95277,-35.03023 38.56888,-35.32015 5.59281,-0.60162 11.21976,-1.13734 16.85064,-1.03175 z"
         id="path1422" />
      <path
         style="fill:#ffffff;fill-opacity:1;stroke:none;stroke-width:3.65345;stroke-linejoin:round;paint-order:fill markers stroke"
         d="m 628.7729,2.05803 c -25.0431,-1.18281 -50.9814,9.15829 -66.0223,29.68513 -16.184,21.74887 -22.664,48.90302 -27.0929,75.18429 -4.9648,35.85272 -3.6548,72.5915 -11.4555,107.86426 -2.4621,14.41624 -5.8122,28.47109 -13.9537,40.90014 -17.0102,29.85515 -36.8021,58.1056 -59.1183,84.43111 -15.6954,19.64445 -31.5827,39.17762 -45.9232,59.85023 -27.9243,-17.10162 -61.8326,-16.02618 -93.2874,-19.18936 -24.5285,-2.21984 -48.5885,-7.9794 -72.9222,-11.30036 -41.1217,-0.14129 -82.6612,-2.84917 -123.4187,3.99957 -31.6856,5.3263 -60.1739,21.89415 -84.9275,41.7584 -16.3433,13.11514 -25.7094,33.58656 -27.5004,54.20504 -0.4225,12.8433 -1.7325,26.36855 4.3415,38.23473 10.1085,23.70141 31.6878,40.04714 52.9752,53.25467 23.3896,14.61013 49.7008,23.18748 75.0845,33.50294 20.5641,9.05078 40.2779,19.41991 59.7594,30.32958 22.0673,22.30982 43.6484,45.59783 60.8155,71.90718 22.1286,32.80346 42.279,67.11201 67.5781,97.65094 -16.0054,10.72319 -28.7918,25.96594 -36.3662,43.70134 -14.0066,29.6484 -24.743,60.49314 -40.866,89.00988 -12.2385,21.98724 -22.1413,45.20726 -29.1652,69.38159 -12.0642,38.04797 -23.9311,77.97217 -17.9573,118.29597 3.6925,23.25 9.7185,47.1466 23.5992,66.561 11.4869,13.2192 27.0668,22.459 43.0154,29.3276 13.0701,4.6696 27.5374,3.1896 40.9287,0.7593 23.8839,-5.7173 42.5003,-23.1625 60.6043,-38.7219 22.889,-21.6707 40.6411,-48.0472 63.0176,-70.2283 11.9308,-11.8325 23.1163,-24.8224 37.1329,-34.2521 24.6678,-12.7038 50.6695,-22.7966 76.9842,-31.5259 38.3405,-11.153 77.6894,-19.276 114.9344,-33.9097 6.6654,15.9174 17.7445,29.4111 30.595,40.7538 26.1532,23.436 52.1567,46.891 76.7127,72.0823 25.9941,26.4055 56.9015,47.2528 88.0293,67.0607 25.7149,15.18 53.8643,28.7528 84.2695,29.7021 15.7676,0.2611 31.9172,2.2146 47.4419,-1.3539 21.2934,-6.4923 38.2244,-22.7999 50.9295,-40.5284 14.6906,-21.6456 11.6251,-49.9496 3.971,-73.5801 -13.5876,-43.5993 -44.4356,-78.8708 -64.1002,-119.31251 -7.4573,-16.0464 -17.1716,-31.88209 -18.0985,-50.01519 -2.3465,-23.08529 -4.3949,-45.03507 -3.1907,-68.26989 1.0926,-40.0029 1.745,-80.01604 2.3411,-120.02891 31.8334,-3.11292 58.4845,-22.57539 85.2562,-38.29451 19.1264,-12.15627 39.8269,-21.38781 59.9863,-31.61255 31.0218,-16.78271 58.8853,-38.75539 85.9935,-61.15252 23.8295,-20.14553 44.5103,-44.94344 55.3765,-74.52081 8.4288,-20.16946 15.8919,-42.92609 8.7614,-64.65724 -6.8636,-23.01576 -20.74,-45.77886 -43.6177,-55.61741 -18.2941,-9.46946 -39.61,-7.99177 -59.5621,-8.04202 -27.5471,0.46385 -53.8182,9.28466 -80.2146,16.03244 -23.7313,5.28502 -47.7942,9.95384 -72.1174,11.17443 -19.6133,-0.18472 -38.5438,-6.41379 -57.3164,-10.81015 -47.7863,-13.06958 -92.6997,-34.75782 -140.4242,-48.29607 -3.8714,-0.0658 -2.5414,-2.84296 -1.8301,-5.4678 4.1633,-23.65752 2.2846,-48.11346 -4.2665,-71.17062 -6.7214,-26.34581 -12.1045,-52.49269 -15.2163,-79.6194 -5.15,-37.5556 -18.9476,-73.17484 -32.3065,-108.416 C 736.9304,82.78215 722.5593,58.00038 701.5389,39.35261 686.3008,25.68569 670.4984,11.34143 650.9803,4.22225 643.7427,2.43021 636.1933,2.18385 628.7729,2.05803 Z m -26.606,589.46487 c 3.9022,3.22004 -2.1532,9.31298 -4.408,11.50219 -4.9061,2.07391 -7.885,-3.35754 -5.8241,-7.38205 1.5334,-3.84765 6.4546,-5.74785 10.2321,-4.12014 z m 368.6382,562.5333 c 8.1624,0.4935 7.9648,13.9454 -0.212,14.1948 -9.253,0.063 -9.0672,-14.5017 0.212,-14.1948 z"
         id="path3573-4"
         inkscape:export-xdpi="3.8029654"
         inkscape:export-ydpi="3.8029654" />
      <path
         style="fill:#000000;stroke-width:0.79862"
         d="m 276.9816,1185.7906 c -3.6866,-0.9274 -10.7402,-4.587 -16.3018,-8.458 -2.3104,-1.6082 -6.2275,-4.056 -8.7046,-5.4396 -8.1759,-4.5667 -12.5021,-13.0018 -18.9074,-36.8647 -5.4791,-20.4129 -5.9077,-23.0753 -6.2086,-38.5757 -0.291,-14.9838 0.2433,-19.045 5.6109,-42.6471 1.1948,-5.2537 2.5075,-11.3442 2.9172,-13.5345 1.1941,-6.3839 3.3082,-13.5127 6.448,-21.7417 4.1482,-10.8723 7.4755,-20.71084 9.9754,-29.49684 5.1746,-18.1864 6.602,-21.38044 20.2245,-45.25729 17.6301,-30.90122 19.235,-34.39045 31.8977,-69.34901 5.798,-16.00684 9.4264,-23.54047 15.8797,-32.97094 11.0096,-16.08891 16.588,-20.59747 36.5828,-29.5667 13.3135,-5.97226 19.6259,-9.32506 18.9219,-10.05042 -0.2141,-0.2206 -2.3461,-0.88686 -4.7377,-1.48063 -5.4932,-1.36363 -10.0526,-5.17686 -17.1097,-14.30925 -2.9191,-3.77755 -9.6071,-11.78464 -14.8622,-17.79352 -6.1186,-6.9962 -11.1375,-13.67767 -13.9556,-18.57869 -2.4205,-4.2094 -5.8253,-10.127 -7.5663,-13.15015 -1.741,-3.02315 -4.8403,-7.56217 -6.8873,-10.0867 -8.2469,-10.17034 -13.498,-17.60702 -16.7991,-23.79111 -1.9101,-3.57831 -5.1307,-9.06888 -7.157,-12.20132 -2.0263,-3.13245 -5.0174,-8.19268 -6.6469,-11.24492 -1.6295,-3.05223 -5.6571,-8.5519 -8.9502,-12.22146 -7.3745,-8.21742 -13.4845,-15.76324 -16.7912,-20.73698 -3.5252,-5.30239 -36.1878,-40.70504 -40.1442,-43.51175 -2.6773,-1.89938 -21.9731,-11.58728 -23.1127,-11.6043 -0.1801,-0.003 -2.9223,-1.59936 -6.0936,-3.5482 -3.1713,-1.94884 -8.3017,-5.09337 -11.4008,-6.98786 -8.5976,-5.25555 -43.485,-19.44856 -65.4009,-26.6066 -13.4058,-4.3785 -15.7967,-5.64847 -40.0174,-21.2554 C 52.0472,522.65311 50.169,521.22531 44.6101,515.18743 35.4974,505.28964 29.7922,491.2702 30.7119,481.03514 c 0.616,-6.85489 5.4043,-25.79992 7.6332,-30.20106 0.9503,-1.87633 4.5505,-5.98853 8.0004,-9.13822 7.5742,-6.91499 32.0502,-22.8817 41.5256,-27.08884 10.2136,-4.53485 24.8632,-9.12495 31.6446,-9.91503 3.3004,-0.38452 8.8809,-1.01516 12.4009,-1.40141 3.5201,-0.38625 11.0804,-1.22107 16.8006,-1.85516 7.6159,-0.84421 17.6699,-1.07074 37.552,-0.84606 14.9333,0.16876 30.2099,0.0826 33.9479,-0.1914 3.8421,-0.28165 9.2212,-0.1187 12.3744,0.37485 3.0679,0.48018 8.626,1.34283 12.3514,1.91697 3.7254,0.57414 7.4875,1.36389 8.3602,1.75498 2.2163,0.99321 23.9147,5.21612 28.272,5.50226 1.9749,0.12969 6.1873,0.86531 9.3609,1.63471 4.1658,1.00993 13.0386,1.73161 31.9096,2.59535 29.5747,1.35368 35.765,2.01709 46.4499,4.97803 17.3426,4.80589 25.2061,9.22506 35.3012,19.83871 l 7.1313,7.49761 4.9491,-7.2257 c 2.722,-3.97413 8.6454,-13.36504 13.1632,-20.86868 4.5178,-7.50366 9.4353,-15.00832 10.9277,-16.67706 1.4926,-1.66872 6.3889,-7.08217 10.8808,-12.02988 4.4918,-4.94771 9.4059,-11.13386 10.9201,-13.74699 3.7511,-6.47374 10.6086,-15.7807 15.1344,-20.54042 2.0592,-2.1657 5.9875,-6.59977 8.7295,-9.8535 2.7419,-3.25373 7.2671,-8.33399 10.0559,-11.28948 2.7887,-2.95547 6.4307,-7.75324 8.0932,-10.66171 6.0086,-10.51119 12.8516,-21.16481 15.0807,-23.47834 1.2517,-1.29917 6.0059,-9.06458 10.565,-17.25647 4.559,-8.19187 9.1561,-16.22345 10.2159,-17.84793 2.6764,-4.10277 7.0114,-12.48191 8.4499,-16.33295 0.6613,-1.77049 2.0018,-9.13756 2.9788,-16.37125 0.9771,-7.23369 2.1174,-14.40504 2.534,-15.93633 5.0542,-18.57567 6.7115,-33.30897 7.9379,-70.56717 0.448,-13.61129 1.1914,-27.40411 1.6518,-30.65072 1.1071,-7.80517 10.4572,-43.14144 12.9883,-49.08594 5.558,-13.05334 14.6858,-22.84966 26.945,-28.91864 2.941,-1.4559 10.4055,-2.6368 19.2379,-3.04346 3.4492,-0.1588 7.987,-0.48359 10.084,-0.72175 8.7198,-0.99029 18.4784,4.21557 38.5063,20.5419 13.8105,11.25804 19.1798,16.77323 27.9163,28.67449 5.8606,7.98373 8.7003,13.26778 15.8805,29.55009 10.9311,24.78866 12.8345,29.68155 15.9012,40.87841 3.6193,13.21422 8.0822,27.1691 11.708,36.60925 3.7537,9.77309 4.576,14.31617 7.5376,41.6454 1.5497,14.30005 3.3464,28.70364 3.9927,32.00796 1.2925,6.608 6.8504,27.89306 11.1888,42.84984 4.4024,15.17757 5.6816,22.69766 6.0389,35.50131 0.4846,17.36724 -1.7618,27.13291 -9.0133,39.18167 -1.7032,2.82995 -4.687,7.95967 -6.6307,11.39939 l -3.5339,6.25403 2.3267,-0.66008 c 3.846,-1.09109 13.0993,-0.19997 19.8599,1.91257 3.498,1.09305 11.5537,3.18468 17.9016,4.64807 18.4919,4.26303 20.917,4.9678 27.9292,8.11696 16.8951,7.58752 22.1713,9.67483 28.1534,11.13771 9.8596,2.41112 17.7765,5.0694 22.7184,7.6282 2.4687,1.27823 8.1817,3.79928 12.6957,5.60234 4.5139,1.80305 10.9166,4.56994 14.2281,6.14863 4.2299,2.01649 10.2619,3.80486 20.2773,6.01179 7.841,1.7278 15.5763,3.84021 17.1896,4.69424 1.6132,0.85403 6.0862,2.17377 9.94,2.93275 3.8538,0.75898 16.3161,3.33584 27.6939,5.72636 22.9185,4.81522 22.142,4.7832 38.728,1.59751 5.5069,-1.05772 13.0715,-2.18404 16.8102,-2.50294 3.7388,-0.31889 10.2691,-0.9061 14.5119,-1.30491 10.7247,-1.00806 44.2172,-9.28532 67.224,-16.61355 14.6438,-4.66442 27.7268,-6.25393 56.4113,-6.85365 10.7718,-0.22522 14.8176,-0.004 19.5524,1.06712 7.1811,1.62515 16.897,6.59204 23.4633,11.99485 3.9675,3.26453 5.4312,5.21122 8.3275,11.07599 1.9327,3.91343 3.7618,8.01758 4.0648,9.12033 0.303,1.10274 1.727,4.82546 3.1645,8.2727 3.1297,7.5053 3.2724,11.68227 0.7593,22.22087 -1.5517,6.50657 -3.3765,11.62222 -11.7314,32.88716 -2.825,7.19009 -8.9754,17.52349 -16.119,27.08195 -8.2509,11.04005 -40.6596,40.09093 -55.558,49.80175 -10.3962,6.77635 -23.4331,16.18247 -31.0318,22.3895 -7.9251,6.47363 -11.6784,8.48337 -37.9755,20.33368 -13.4891,6.07866 -26.7008,12.30323 -29.3594,13.83235 -4.8778,2.80563 -26.4516,16.72788 -39.1143,25.24168 -11.7275,7.88504 -16.9059,10.56781 -28.9777,15.01238 -15.8557,5.83773 -27.5673,6.69246 -42.6847,3.11502 -4.3265,-1.02378 -8.0204,-1.71208 -8.2086,-1.52943 -0.1882,0.18265 0.1847,2.49825 0.8288,5.14576 0.644,2.64759 1.1319,7.42724 1.0842,10.62152 -0.048,3.1942 0.5639,12.85581 1.3591,21.47009 1.4814,16.04709 1.4045,20.62837 -0.6985,41.58839 -0.6459,6.43953 -0.6929,12.5543 -0.1576,20.52821 0.5766,8.58802 0.5159,12.87098 -0.2487,17.56787 -0.5563,3.41608 -1.2619,9.4421 -1.5682,13.39114 -0.3062,3.94903 -0.9851,11.12727 -1.5086,15.95164 -0.804,7.40935 -0.7333,10.94557 0.4552,22.76999 0.8013,7.97261 1.179,15.89912 0.8773,18.41391 -0.3005,2.50481 -0.04,8.0384 0.6019,12.78832 0.6224,4.60506 1.6194,13.23227 2.2156,19.17158 1.5535,15.47605 2.5152,23.14236 3.3631,26.80696 0.4079,1.76325 3.8332,9.00277 7.6118,16.08783 3.7787,7.08506 7.5527,14.68922 8.3868,16.89812 6.4947,17.19867 17.4126,35.51967 44.9027,75.34977 5.8161,8.427 7.9803,13.1045 17.8609,38.6047 9.0426,23.3376 10.0077,34.6638 4.3193,50.6963 -2.5358,7.147 -3.3913,8.3591 -10.3811,14.7073 -18.3799,16.6928 -19.7435,17.4605 -33.0923,18.6292 -8.9062,0.7797 -37.8521,-0.6308 -45.5652,-2.2202 -15.5069,-3.1956 -27.5836,-7.7865 -42.0926,-16.0012 -24.8265,-14.0563 -32.3209,-18.7 -39.965,-24.7636 -3.4731,-2.755 -8.7462,-6.9412 -11.718,-9.3028 -2.9718,-2.3615 -10.6178,-7.8185 -16.9912,-12.1266 -6.3733,-4.3082 -12.8728,-8.8857 -14.4433,-10.1723 -1.5704,-1.2865 -11.408,-11.738 -21.8612,-23.2255 -22.7843,-25.0387 -23.3157,-25.532 -50.8172,-47.1798 -32.6985,-25.7387 -44.3685,-42.5439 -46.6809,-67.2217 -1.1016,-11.75611 -0.9034,-11.49565 -6.1805,-8.12387 -2.4295,1.55227 -7.3082,3.86285 -10.8415,5.1345 -3.5333,1.27174 -13.2962,5.19705 -21.6954,8.723 -9.11,3.82436 -18.1809,7.04652 -22.4831,7.98649 -3.9665,0.86663 -10.0968,2.21388 -13.6228,2.99389 -3.5259,0.78008 -7.6721,1.64283 -9.2137,1.91733 -1.5416,0.27449 -4.4321,1.28826 -6.4233,2.25284 -6.189,2.99802 -17.7037,6.62932 -26.4821,8.35142 -4.6261,0.9075 -12.0183,2.5184 -16.427,3.5797 -4.4088,1.0613 -10.3596,2.4324 -13.2242,3.0469 -4.4424,0.9529 -9.4694,2.9352 -27.9606,11.0254 -1.4596,0.6386 -3.986,1.337 -5.6141,1.552 -1.6281,0.2149 -9.6551,3.4457 -17.8377,7.1793 -8.1826,3.7337 -19.4001,8.7934 -24.9278,11.2439 -11.9208,5.2846 -15.3878,7.7962 -25.1374,18.21 -4.0462,4.3219 -12.1126,12.0464 -17.9253,17.1656 -5.8128,5.1193 -14.0661,13.3815 -18.3406,18.3605 -10.0329,11.6865 -26.3782,32.0111 -31.431,39.083 -6.3607,8.9024 -11.3559,14.1055 -21.7444,22.6493 -5.37,4.4164 -12.6988,10.4683 -16.2861,13.4486 -11.7027,9.7226 -21.37,14.74 -31.6165,16.4091 -6.9683,1.1352 -15.0965,1.1377 -19.5947,0.01 z m 16.5045,-22.3614 c 5.7598,-1.2898 11.5752,-4.1839 16.0937,-8.0091 2.0021,-1.6949 8.5505,-6.9703 14.5518,-11.7231 11.4013,-9.0292 18.3827,-15.7947 22.8107,-22.1049 13.7079,-19.5348 41.3136,-51.6462 52.7571,-61.3678 4.8623,-4.1306 12.3666,-11.2929 16.6763,-15.9161 4.3097,-4.6232 9.8033,-10.1736 12.2082,-12.3341 l 4.3723,-3.9283 -2.0716,-4.0245 c -1.1394,-2.2134 -3.255,-5.6595 -4.7014,-7.6579 -9.5954,-13.2575 -10.4743,-14.7656 -10.4276,-17.89225 0.1238,-8.29186 8.7723,-13.51654 15.9784,-9.65269 2.8492,1.52767 13.8263,15.87414 17.8106,23.27734 2.2318,4.1467 3.5528,5.7984 4.5153,5.6456 0.7484,-0.1188 4.0445,-1.4243 7.3247,-2.9011 l 5.9641,-2.6852 -0.3386,-4.5823 c -0.8528,-11.53842 -5.772,-25.86802 -10.9953,-32.02859 -4.704,-5.54818 -4.5749,-12.56435 0.3046,-16.54708 4.7697,-3.89325 10.0838,-3.41654 16.0287,1.43805 5.4535,4.45341 12.5904,21.5204 15.9262,38.08575 0.4297,2.13357 1.0252,3.12367 1.7818,2.96267 0.6251,-0.133 4.8443,-1.83659 9.3761,-3.78574 l 8.2397,-3.54399 0.2183,-5.25607 c 0.5052,-12.16438 -0.9065,-19.53637 -6.0575,-31.6317 -2.1218,-4.9824 -3.8407,-10.21317 -3.8196,-11.62385 0.1226,-8.2077 9.6428,-13.08502 16.7709,-8.59191 2.0934,1.31958 3.5804,3.70748 7.1789,11.52794 4.9826,10.82853 7.4242,20.42513 8.0538,31.65471 l 0.373,6.65298 4.0779,-0.4958 c 7.5816,-0.92167 7.4462,-0.76603 8.2285,-9.45803 1.0822,-12.02238 -0.6334,-22.8173 -6.2022,-39.02695 -1.304,-3.79592 -1.4413,-5.2005 -0.746,-7.63697 1.995,-6.99157 10.2885,-10.15825 16.1,-6.14741 5.2623,3.63164 10.4666,18.58642 12.6682,36.4019 0.6527,5.28122 0.9756,11.64209 0.7176,14.13516 -0.258,2.49315 -0.2995,4.70774 -0.092,4.9213 0.5241,0.53985 9.855,-2.55103 17.7198,-5.86979 7.4686,-3.15144 12.7737,-4.5555 24.9387,-6.60024 10.7416,-1.80546 11.6739,-2.1008 25.795,-8.1713 6.4109,-2.75597 15.2637,-6.28969 19.673,-7.85273 7.7234,-2.7379 8.0432,-2.94637 8.737,-5.69611 1.1756,-4.65904 -1.5482,-8.71403 -16.3164,-24.29013 -12.7701,-13.46874 -13.7621,-14.32332 -20.5027,-17.66234 l -7.0832,-3.50883 -12.7757,-0.24349 c -11.6738,-0.22224 -13.0642,-0.40315 -16.1204,-2.09532 -11.2898,-6.25132 -15.511,-16.574 -13.0404,-31.88996 l 1.1357,-7.04059 -2.8012,-3.49377 c -1.5407,-1.92154 -5.9825,-7.07732 -9.8707,-11.45743 -3.8882,-4.38003 -9.1864,-10.61336 -11.7737,-13.85194 -2.5874,-3.23858 -6.0568,-7.55214 -7.7098,-9.58581 -1.653,-2.0336 -5.4067,-7.36153 -8.3415,-11.8397 -2.9348,-4.47818 -7.8318,-11.59392 -10.8822,-15.81272 -7.3971,-10.23026 -12.7553,-21.64211 -22.2145,-47.31224 -1.8427,-5.00059 -3.6548,-9.65569 -4.027,-10.34478 -0.5423,-1.00385 -4.277,1.86573 -18.7938,14.43979 -20.8311,18.04358 -30.5399,27.51121 -33.0006,32.18142 -2.9845,5.6642 -24.438,31.37415 -41.4169,49.63427 -7.34,7.89385 -9.6001,9.69833 -24.0595,19.20909 -16.6318,10.93963 -24.0314,16.75347 -28.4355,22.3416 -13.5581,17.2034 -63.5571,118.80009 -72.7481,147.82238 -1.0384,3.2791 -2.5531,7.5695 -3.366,9.5342 -1.9449,4.7007 -5.2983,17.331 -7.4985,28.2422 -3.6429,18.0659 -5.4427,33.2666 -6.196,52.3308 -0.8024,20.3054 -0.1563,30.7394 2.4422,39.4385 1.2523,4.1923 1.9482,5.1864 5.2008,7.4291 9.9808,6.8822 13.2224,7.7593 21.677,5.866 z m 677.6643,0.1092 c 0.5531,-0.8658 -0.3365,-1.1485 -8.2667,-2.6269 -8.3679,-1.56 -23.4726,-6.4437 -36.2621,-11.7245 -21.9367,-9.0576 -54.5782,-26.835 -63.2426,-34.4436 -1.7812,-1.5641 -5.7285,-4.5777 -8.7719,-6.6968 -22.1474,-15.4218 -96.6176,-87.1175 -116.1049,-111.77939 -7.4517,-9.43029 -10.4854,-17.15102 -18.0737,-45.99612 -2.8889,-10.98113 -4.9523,-15.32401 -17.1361,-36.06454 -10.3816,-17.67263 -20.8766,-33.8988 -25.2798,-39.08491 -7.2026,-8.48306 -13.8479,-23.44402 -48.733,-109.71478 -19.329,-47.80037 -36.5722,-83.61181 -40.2858,-83.66726 -0.8298,-0.0124 -4.5108,1.3934 -8.1798,3.12388 -6.4956,3.06373 -12.707,5.71374 -32.2423,13.75575 -15.8098,6.50829 -20.5713,9.21007 -26.5916,15.08836 -3.0442,2.9723 -5.3535,5.82978 -5.1318,6.34985 0.2217,0.52008 4.0128,10.16471 8.4244,21.43247 10.847,27.70368 12.0917,30.39411 17.3993,37.60743 2.5296,3.43788 7.5116,10.6072 11.071,15.93183 7.9422,11.88054 15.4533,21.47225 25.9469,33.13451 7.9471,8.83218 14.3963,17.14776 22.674,29.23562 5.7866,8.45017 13.456,16.10738 20.3856,20.35344 3.1462,1.92778 12.7443,6.93548 21.329,11.1283 8.5847,4.19282 17.5688,9.11707 19.9646,10.94291 6.3951,4.87361 20.7303,19.2352 26.4083,26.45709 8.4864,10.7938 10.1918,16.11646 12.7894,39.91643 1.8388,16.84682 2.9014,20.0691 9.6585,29.28806 6.5476,8.93337 12.9237,15.24177 24.8132,24.54987 31.2686,24.4798 37.3395,30.1239 63.8095,59.3233 8.9525,9.8755 16.3558,17.3206 18.492,18.596 6.6231,3.9548 17.7423,11.8415 28.3271,20.092 17.3131,13.4951 17.8238,13.827 45.6094,29.6444 15.7516,8.9667 28.963,13.7248 42.1051,15.1639 9.8055,1.0738 34.5377,1.5554 35.0948,0.6834 z m 12.197,-5.6704 c 10.7555,-7.8034 12.7629,-10.5519 14.1462,-19.3691 1.1875,-7.5696 0.043,-13.0082 -6.3451,-30.1399 -8.3736,-22.4576 -11.0669,-27.9574 -18.9444,-38.6842 -8.5066,-11.5835 -31.6874,-48.238 -35.7148,-56.4737 -1.082,-2.2126 -3.4029,-7.6385 -5.1575,-12.0576 -1.7546,-4.41914 -5.6022,-12.38381 -8.5501,-17.6993 -2.9478,-5.3155 -6.1752,-11.47381 -7.1719,-13.68514 -3.8612,-8.56654 -3.3391,-8.06203 -8.1551,-7.87868 -2.514,0.0958 -8.7379,1.60016 -14.7821,3.57313 -5.7418,1.87429 -11.5152,3.39036 -12.8296,3.36914 -3.7892,-0.0646 -7.3164,-2.76624 -8.3465,-6.40081 -1.0365,-3.65735 -0.5422,-6.20663 1.752,-9.03526 2.0675,-2.54904 20.5615,-9.34105 28.8099,-10.58055 3.6052,-0.54176 5.2704,-1.66974 5.5489,-2.36421 0.742,-1.85039 0.3776,-14.09406 -0.6614,-15.56034 -1.2242,-1.72776 -13.4324,-4.54077 -20.2273,-4.66069 -6.9034,-0.12225 -15.8871,1.22823 -19.8192,2.97859 -4.1115,1.83011 -5.2869,1.80329 -9.0871,-0.20758 -2.3031,-1.21871 -3.3828,-2.49408 -4.3461,-5.13422 -1.1557,-3.16712 -1.1597,-3.79321 -0.041,-6.36248 1.3489,-3.09778 6.4469,-7.12565 10.4937,-8.29116 5.8216,-1.67662 18.5512,-2.45209 29.036,-1.76877 9.2712,0.60417 10.7524,0.53236 11.1833,-0.54234 0.2731,-0.68121 0.069,-5.60773 -0.4526,-10.94771 l -0.9492,-9.70897 -5.1588,-2.19817 c -9.6977,-4.1322 -21.4908,-5.66204 -33.0823,-4.29155 -13.0595,1.54409 -17.5606,-0.73331 -17.4398,-8.82386 0.1085,-7.26599 3.1987,-9.24505 16.5449,-10.5958 10.4242,-1.05494 21.7487,-0.25374 31.1637,2.20486 4.3264,1.12977 7.445,1.58336 7.8894,1.14759 0.4041,-0.39643 1.0291,-3.52203 1.3889,-6.94584 0.6344,-6.03762 0.5991,-6.24038 -1.1718,-6.73184 -1.0043,-0.27873 -3.6993,-1.54267 -5.9888,-2.80871 -6.4707,-3.57804 -31.8417,-6.17462 -33.2454,-6.0798 l -11.9857,0.80961 -2.9513,-3.81666 c -2.9621,-3.83069 -3.83,-7.79755 -1.2203,-11.52489 2.7774,-3.96693 5.2642,-4.794 15.4675,-5.14386 11.0962,-0.38054 24.6766,1.65952 34.9691,5.25302 3.8681,1.35047 7.5384,2.26996 8.1563,2.0434 1.4107,-0.51734 1.5698,-6.67916 0.5278,-20.43937 -0.6383,-8.42856 -0.5311,-11.47467 0.6837,-19.429 1.7875,-11.70362 1.9652,-21.60551 0.6474,-36.06073 -0.5615,-6.15844 -0.9865,-13.75747 -0.9445,-16.88682 0.1469,-10.95721 -1.3661,-13.13543 -9.1568,-13.18053 -4.9246,-0.0288 -8.2747,1.14343 -16.9231,5.91979 -3.8635,2.13381 -10.8779,5.52605 -15.5875,7.53843 -15.5065,6.62584 -19.8948,11.39753 -23.8453,25.92887 -3.3344,12.26477 -6.1971,16.8118 -12.979,20.61534 -10.3327,5.79512 -21.1998,3.04671 -41.8367,-10.58088 -4.9873,-3.29351 -12.827,-7.81682 -17.4214,-10.05192 -4.5944,-2.23502 -11.3635,-5.52735 -15.0426,-7.3162 -12.5569,-6.10538 -22.3808,-15.3941 -26.9166,-25.45016 -2.4707,-5.47722 -7.1663,-22.19602 -8.1682,-29.08259 -0.9689,-6.65972 0.4781,-17.53553 5.8588,-44.03373 1.6834,-8.29061 1.4013,-16.88102 -0.6303,-19.19447 -0.7696,-0.87633 -2.6875,-1.97197 -4.2621,-2.43477 -7.3704,-2.16641 -40.4618,-0.47521 -49.8984,2.55011 -5.8732,1.88295 -19.0039,8.10402 -25.2059,11.94217 -5.2203,3.23054 -14.6055,10.28244 -22.4874,16.89674 -6.9267,5.81267 -15.9551,11.97 -23.1992,15.82183 -3.899,2.07313 -5.4411,3.34065 -5.4582,4.4863 -0.013,0.87831 1.7388,4.62709 3.8932,8.33084 8.2861,14.2449 20.6322,42.30667 44.4084,100.93693 25.6204,63.17768 32.8834,79.12725 38.2681,84.03649 2.2995,2.09644 11.7152,16.60206 22.8751,35.2406 15.6988,26.21937 16.1747,27.26168 21.8001,47.75596 5.7678,21.01317 8.8882,29.03008 13.9296,35.78824 16.7575,22.46378 90.5331,93.68558 119.2202,115.09328 16.3561,12.2057 23.2459,16.5226 41.5321,26.0221 21.3068,11.0687 40.0161,18.6941 56.0321,22.8373 10.0274,2.594 11.4134,2.8178 19.1032,3.0852 3.4344,0.1194 5.1605,0.1425 6.5316,-0.3639 0.6748,-0.2493 1.753,-1.3264 1.927,-1.1872 z m -723.0655,-18.3544 c -1.2562,-10.9035 -0.7045,-35.6748 1.1343,-50.9314 2.8191,-23.391 8.5282,-50.4645 12.4281,-58.9367 0.8125,-1.7649 1.7652,-4.6302 2.1173,-6.3673 2.8536,-14.0789 40.6071,-94.91291 61.4827,-131.6404 14.2458,-25.06329 16.8118,-27.74808 42.746,-44.72362 15.9616,-10.44797 17.6025,-11.94836 36.704,-33.56147 14.0341,-15.87938 23.5832,-27.71518 27.2809,-33.81353 3.6901,-6.08617 14.0923,-16.2198 36.0862,-35.1547 9.3398,-8.04082 16.9878,-15.04071 16.9956,-15.55552 0.01,-0.51474 -0.7387,-3.13806 -1.6587,-5.82955 -1.6641,-4.8683 -1.6648,-4.92541 -0.1313,-11.02757 1.434,-5.70581 1.8305,-6.37463 5.6827,-9.58375 12.0261,-10.01857 24.7326,-17.1124 46.0061,-25.6846 12.1333,-4.8891 18.4911,-7.70721 22.5129,-9.97874 7.0239,-3.96717 31.1687,-28.02314 31.2146,-31.0998 0.01,-0.54292 -3.2572,-4.51078 -7.2563,-8.81739 -3.9992,-4.30661 -10.962,-12.19288 -15.4729,-17.52509 -16.7942,-19.85157 -24.5142,-26.84693 -33.1517,-30.04029 l -2.9493,-1.09032 -5.1658,4.45851 c -2.8412,2.45218 -9.3488,7.77999 -14.4612,11.8396 -16.8205,13.35658 -24.029,20.27765 -30.766,29.53943 -3.4821,4.78698 -8.501,11.36128 -11.1534,14.60956 -6.6217,8.10977 -14.7861,20.31368 -22.1629,33.12878 -6.0662,10.53815 -12.5787,20.26462 -17.787,26.56493 -12.3977,14.99712 -16.6841,26.36702 -19.9116,52.81678 -2.4535,20.10647 -3.25,22.66522 -12.8009,41.12061 -12.6808,24.50383 -16.8049,28.30241 -43.4665,40.03498 -13.5743,5.97339 -18.009,9.29282 -24.1312,18.06259 -6.8584,9.82433 -10.5128,17.11764 -15.7993,31.53158 -14.6188,39.8593 -15.0612,40.81801 -35.1621,76.20495 -9.367,16.49043 -12.4908,22.71029 -13.5369,26.95394 -2.1795,8.84135 -6.8483,23.4621 -11.2333,35.1782 -5.4,14.4281 -5.9228,16.2941 -11.1817,39.9111 -4.5038,20.226 -4.5202,20.3473 -4.5302,33.4781 -0.011,14.5973 0.7506,19.5058 5.8396,37.6265 3.2713,11.6486 5.3423,17.2969 6.0797,16.5812 0.254,-0.2464 0.055,-3.9723 -0.4405,-8.2796 z M 384.4885,775.64922 c 2.9132,-2.31533 4.5587,-4.83752 9.1636,-14.04599 4.6355,-9.26952 5.7257,-12.19496 6.2605,-16.79952 1.0789,-9.28796 3.1802,-20.38994 4.9948,-26.3883 l 1.7172,-5.67674 -2.1704,-5.51195 c -2.8936,-7.34844 -2.8634,-14.06441 0.091,-20.25924 3.9346,-8.25005 9.8825,-12.12946 22.3893,-14.60311 l 6.7284,-1.33074 4.9987,-8.43431 c 10.078,-17.00449 16.8912,-27.22039 24.1804,-36.25699 2.9761,-3.68952 8.5552,-10.9743 12.3981,-16.18839 8.4988,-11.53128 15.1703,-17.75783 42.7552,-39.90362 12.234,-9.82177 14.9703,-12.20339 14.5355,-12.65141 -0.2124,-0.21883 -7.1483,-4.53309 -15.413,-9.58724 -27.8372,-17.02335 -44.7949,-26.15859 -48.6655,-26.21638 -3.8394,-0.0573 -37.0503,-13.33238 -59.5548,-23.80515 -8.5061,-3.95846 -13.1958,-6.725 -18.2098,-10.74231 -27.3695,-21.9288 -32.4908,-25.22417 -44.0475,-28.34321 -31.3109,-8.45046 -114.4355,-20.02374 -155.7264,-21.68149 -21.4623,-0.86168 -33.109,-0.21434 -54.5352,3.03114 -26.7741,4.05554 -51.0531,10.6346 -66.8577,18.11696 -13.2434,6.26977 -15.8857,9.75696 -17.18,22.67358 -0.5537,5.52571 -0.4509,6.06087 2.2568,11.75205 3.7049,7.78685 6.9999,10.75095 24.9985,22.48777 21.309,13.89547 23.5563,15.07395 37.1783,19.49617 16.0407,5.20737 52.9381,19.8925 62.1569,24.73835 2.1223,1.11558 6.4116,3.72711 9.5317,5.8034 3.1202,2.07629 12.0301,6.85392 19.7999,10.61696 7.7697,3.76304 15.1362,7.58368 16.37,8.49027 1.2338,0.90659 2.738,1.65572 3.3428,1.66475 1.8124,0.0271 9.7987,-8.54043 15.2717,-16.38328 5.3862,-7.71836 7.8588,-9.6287 12.3755,-9.56125 5.0818,0.0759 9.8952,6.23783 8.6853,11.11866 -0.7682,3.09908 -13.4328,21.3456 -17.3902,25.05497 -1.8236,1.70932 -3.3197,3.84349 -3.3247,4.7426 -0.014,2.48593 9.1041,12.55355 11.4005,12.58784 1.0337,0.0154 2.0896,-0.30074 2.3464,-0.70257 0.2567,-0.40191 2.1779,-1.2724 4.2692,-1.93453 7.6068,-2.40833 22.2566,-13.61702 25.2898,-19.34942 4.2051,-7.94729 14.1382,-8.11613 17.4995,-0.29738 1.5309,3.56082 1.1055,6.41512 -1.7604,11.81345 -3.2188,6.06309 -16.5493,16.91488 -29.2968,23.84941 -2.1037,1.14436 -3.8317,2.52972 -3.8399,3.07855 -0.01,0.54883 2.8991,4.35096 6.4606,8.4492 7.1695,8.25006 7.5867,8.42689 15.3132,6.4923 4.2862,-1.07319 14.3005,-5.65648 18.4179,-8.42937 1.3568,-0.91367 5.312,-4.23618 8.7895,-7.3834 7.4585,-6.75009 10.783,-8.09163 15.241,-6.15034 3.169,1.38005 6.0796,5.46786 6.0394,8.48214 -0.049,3.6647 -2.7596,7.30867 -10.3294,13.88609 -8.198,7.12323 -16.8571,12.4023 -26.2563,16.00732 -3.9147,1.50135 -5.9056,2.7089 -6.0744,3.68407 -0.1381,0.79793 0.8365,3.53232 2.1657,6.07649 2.756,5.27493 2.6387,5.24091 12.2965,3.56719 10.0943,-1.74939 22.8274,-8.14939 34.6042,-17.3931 4.8562,-3.81169 8.0768,-4.55919 11.7792,-2.73404 3.4336,1.69262 5.358,5.07936 5.2947,9.3182 -0.045,3.02021 -0.4952,3.75596 -4.7075,7.69499 -8.8938,8.31681 -23.4974,16.53534 -36.4478,20.51177 -10.0478,3.0852 -10.0825,2.95681 6.1241,22.70992 2.4127,2.94061 6.4275,9.23959 8.9219,13.99785 6.4103,12.22818 9.1315,16.12834 19.5667,28.04387 5.0671,5.78595 10.1112,11.79168 11.2091,13.34607 4.5536,6.44665 6.5426,8.08567 9.8729,8.1354 2.4402,0.0364 3.9592,-0.59223 6.7057,-2.77498 z m 420.4824,-27.08756 c 10.9213,-3.53357 19.0292,-8.72727 23.634,-15.13955 4.5343,-6.31389 7.0388,-8.93834 12.6249,-13.22969 2.6664,-2.04825 7.7676,-6.40754 11.3362,-9.68727 4.4878,-4.12452 9.2574,-7.46794 15.4692,-10.84365 30.4259,-16.53451 37.6492,-17.9616 63.1904,-12.48492 8.2741,1.77417 16.7592,3.11858 19.9867,3.16678 11.0382,0.16483 28.5538,-6.84098 44.4803,-17.79098 17.5039,-12.0345 35.0954,-23.1233 43.5401,-27.44544 4.6481,-2.37903 18.5832,-8.90581 30.9669,-14.5041 12.8421,-5.80557 23.9056,-11.32334 25.7505,-12.84288 9.027,-7.43513 21.39,-16.5609 31.7537,-23.43901 11.4589,-7.60488 20.2191,-14.78642 39.8395,-32.65962 14.2886,-13.01626 24.2208,-27.31559 29.6937,-42.74978 1.1256,-3.17421 3.369,-9.34572 4.9855,-13.71448 1.6165,-4.36876 2.9583,-9.02112 2.982,-10.33857 0.038,-1.99822 -0.6724,-1.14807 -4.2711,5.12782 -11.0041,19.18982 -26.3286,37.56697 -50.3387,60.36622 -7.2825,6.91534 -16.3288,14.76651 -20.1028,17.44705 -3.774,2.68056 -8.6793,6.2368 -10.9006,7.90278 -24.9619,18.72116 -121.5144,70.22103 -147.8715,78.87259 -8.9549,2.93946 -18.2003,3.49924 -39.0413,2.36399 l -17.3895,0.099 -11.9806,1.61172 c -9.3757,1.26133 -60.4782,13.10536 -63.0522,15.17751 -2.9045,2.33814 -21.9076,5.02269 -51.7065,7.30434 -10.3351,0.79142 -19.5118,1.56316 -20.3927,1.71502 -1.0167,0.17539 -2.157,1.5823 -3.1228,3.8529 -0.9821,2.3091 -2.4958,4.15915 -4.2712,5.22 -1.5124,0.90383 -2.508,2.00503 -2.5127,2.31375 -0.019,1.30096 -5.1918,3.11975 -8.4035,3.08313 -5.6213,-0.064 -6.0224,0.55494 -4.0108,6.18928 0.9505,2.66191 2.9115,6.26494 4.358,8.00672 3.4144,4.11178 11.2224,9.33036 17.8736,11.94617 7.7803,3.05982 14.3868,6.45842 23.2655,11.96839 4.3526,2.70113 7.9405,4.91945 7.9732,4.92969 0.033,0.0101 2.5818,-0.79754 5.6646,-1.79494 z m -17.5764,-60.29827 c 33.0226,-2.51362 42.3823,-4.01472 58.4456,-9.37339 8.9767,-2.99458 32.5797,-8.78858 52.3429,-12.84898 l 14.4216,-3.14737 24.3468,1.06404 25.5301,-0.0842 8.2107,-1.96002 c 24.9662,-5.95975 122.8238,-60.18242 145.5773,-77.12595 2.7435,-2.04305 8.0762,-5.91336 11.8503,-8.60071 8.3241,-5.92717 32.1542,-28.40937 42.7254,-40.30868 15.7878,-17.77132 27.3118,-34.43767 31.6252,-45.73721 l 1.8617,-6.08562 -0.9207,-4.13808 c -0.9689,-4.3545 -5.5693,-13.29467 -8.3147,-15.41254 -7.9208,-6.1101 -14.7047,-7.10997 -40.5887,-5.98232 -18.388,0.80108 -27.0025,1.95752 -35.3381,4.74389 -9.3866,3.13762 -36.7648,10.5824 -52.353,14.23602 -10.5448,2.4715 -17.9779,3.68477 -27.2224,4.44337 -6.9944,0.57395 -17.0429,1.90768 -22.3302,2.96385 -5.2872,1.05617 -12.4934,2.24575 -16.0136,2.64352 -3.5203,0.39777 -6.5041,0.8193 -6.6307,0.93675 -1.0745,0.9967 -2.0115,11.97249 -1.6915,19.81458 0.3471,8.50555 0.2196,9.76208 -1.2961,12.77743 -2.111,4.19965 -5.713,6.38984 -9.4247,5.73051 -3.8174,-0.67813 -7.1784,-3.39272 -8.1883,-6.6134 -0.7761,-2.47502 -0.8586,-21.22317 -0.141,-31.98969 l 0.266,-3.98957 -7.7074,-1.61973 c -4.239,-0.89085 -8.1935,-1.44142 -8.7878,-1.22348 -1.5939,0.58447 -9.4802,16.074 -10.9982,21.60167 -0.7209,2.62497 -1.5104,8.30428 -1.7544,12.62069 -0.3424,6.05679 -0.8179,8.43382 -2.0834,10.41463 -2.8664,4.48676 -8.0428,5.59759 -12.6246,2.70921 -5.4828,-3.45641 -6.6937,-10.48349 -4.0071,-23.25472 1.7389,-8.26645 4.5125,-16.33326 7.6631,-22.28763 1.3986,-2.64329 2.2738,-7.1162 1.3948,-7.12933 -0.1591,-0.002 -4.6869,-0.96853 -10.0616,-2.14702 -5.3747,-1.17848 -10.0553,-2.14692 -10.4014,-2.15209 -0.346,-0.005 -2.7766,2.75368 -5.4013,6.13076 -5.9914,7.709 -10.3788,17.41544 -12.2858,27.18084 -1.7416,8.91862 -3.677,13.01651 -6.9079,14.62653 -5.0767,2.52997 -11.1304,0.16541 -13.2723,-5.18421 -1.1117,-2.7765 -1.0593,-3.63895 0.7385,-12.15179 2.6964,-12.76715 7.1509,-23.54481 13.3494,-32.2992 1.2866,-1.81709 2.3476,-3.86272 2.3578,-4.54586 0.022,-1.45348 -8.9524,-6.40603 -10.9964,-6.06858 -0.752,0.12415 -3.7412,2.74401 -6.6427,5.82192 -6.4238,6.81429 -13.5436,20.01656 -16.7822,31.11922 -2.431,8.33402 -3.851,10.68273 -7.3096,12.08988 -3.1032,1.26256 -5.672,0.95386 -8.8251,-1.06055 -3.4645,-2.2134 -4.6389,-5.4344 -3.8812,-10.645 1.4667,-10.08581 10.2792,-29.40863 17.8145,-39.06107 2.502,-3.2051 4.0702,-5.96921 3.9389,-6.94298 -0.2482,-1.84016 -2.16,-2.56504 -16.9194,-6.41507 -10.8844,-2.83921 -14.5539,-4.24213 -24.7739,-9.47143 -8.3982,-4.29715 -10.9793,-5.1314 -28.8582,-9.32719 -7.223,-1.69508 -15.406,-3.81127 -18.1845,-4.70264 -9.7549,-3.12942 -12.9889,-1.71284 -14.6146,6.40141 -0.9221,4.60241 -0.5776,8.70026 1.6993,20.21465 0.6099,3.08413 1.0952,6.94241 1.0784,8.57396 -0.022,2.13882 1.2001,5.16536 4.3799,10.84797 2.4258,4.33484 6.0625,11.50038 8.0817,15.92343 3.15,6.90021 4.1025,8.27475 6.7089,9.68199 1.6707,0.90204 4.8617,3.39309 7.091,5.53567 5.1645,4.96361 7.5679,10.4765 7.4936,17.18872 -0.07,6.37446 -3.5153,13.16338 -9.8992,19.50922 l -4.5516,4.52452 1.1462,11.78358 c 0.6304,6.48096 1.4437,15.71418 1.8071,20.51827 0.8505,11.24078 0.1645,55.87214 -0.9708,63.14444 -0.8558,5.48257 -2.777,13.31014 -9.2779,37.80011 -1.8003,6.7821 -3.4976,13.49874 -3.7717,14.92593 l -0.4983,2.59483 2.9818,-0.35802 c 1.64,-0.19691 9.0989,-0.82362 16.5753,-1.39271 z m -40.5982,-4.28389 c 0.3186,-0.49867 1.0484,-3.09356 1.622,-5.76642 0.5735,-2.67294 2.6257,-10.58689 4.5604,-17.58663 7.4997,-27.13244 7.678,-28.33479 8.1005,-54.61478 0.3666,-22.78672 -0.2052,-38.74157 -1.7738,-49.52221 -0.4164,-2.8616 -0.8942,-15.4484 -1.0619,-27.97066 -0.3846,-28.72536 -0.6699,-29.7665 -15.7335,-57.41112 -9.4261,-17.29878 -12.8459,-29.97527 -14.6025,-54.1299 -1.0718,-14.73756 0.8242,-21.00208 12.2667,-40.53003 8.1266,-13.86893 9.1237,-16.4998 9.9361,-26.2166 0.9064,-10.84192 -0.733,-22.70741 -5.3223,-38.52089 -11.1056,-38.26642 -12.2722,-44.03766 -16.459,-81.41904 -2.8186,-25.16514 -2.988,-26.10631 -6.2745,-34.83752 -3.0776,-8.17628 -6.5104,-18.93655 -13.8695,-43.47478 -1.4557,-4.85392 -2.9282,-9.18893 -3.2721,-9.63336 -0.3438,-0.44442 -2.3622,-4.9673 -4.4852,-10.05083 -7.9776,-19.10268 -13.9361,-30.95269 -18.8163,-37.42093 -6.1456,-8.14542 -14.1207,-16.63484 -19.2333,-20.47339 -2.1721,-1.63084 -6.4342,-5.03947 -9.4714,-7.57475 -6.0546,-5.05409 -11.7083,-8.89658 -13.1212,-8.91768 -0.4983,-0.007 1.2962,2.41224 3.9878,5.37704 10.6238,11.70234 23.4355,30.44795 33.1442,48.49537 7.7309,14.37081 17.1963,35.29637 19.821,43.81917 1.3935,4.52479 3.3137,10.40498 4.2671,13.06709 9.5126,26.56184 29.3655,139.541 28.986,164.95473 -0.1556,10.41968 -1.3817,14.97525 -10.8103,40.16337 -5.5974,14.95351 -5.8489,15.92868 -7.2826,28.2454 -3.0192,25.93815 -3.5682,33.14868 -4.0693,53.45271 -0.5682,23.02034 -0.9262,25.48601 -8.142,56.07084 -2.1021,8.90997 -3.7193,16.50823 -3.5937,16.88504 0.1255,0.3768 3.0717,2.4652 6.5471,4.64089 6.3268,3.9607 6.9114,4.65727 9.8072,11.68406 1.9858,4.81859 1.9303,6.36734 -0.4837,13.51269 -1.0894,3.22465 -2.8034,8.32554 -3.809,11.33532 -2.2086,6.61111 -6.1129,14.16595 -14.3577,27.78246 -3.4107,5.63276 -6.0727,10.37368 -5.9158,10.53544 0.157,0.16169 4.7346,-0.0299 10.1726,-0.42564 24.7068,-1.79835 38.9674,3.1916 45.1663,15.80408 0.849,1.72742 2.0043,6.05299 2.5674,9.61238 1.1497,7.26784 0.687,12.68999 -2.291,26.84217 -1.4926,7.09324 -1.7501,10.18144 -1.4073,16.8751 0.4038,7.88266 0.49,8.19408 2.2735,8.22071 1.0196,0.0152 2.1145,-0.38032 2.433,-0.8789 z M 590.8845,656.86114 c 5.1041,-2.79066 15.7692,-10.21634 16.6472,-11.59075 0.3172,-0.49661 -0.2291,-1.78685 -1.2141,-2.86728 -1.796,-1.96983 -3.8986,-2.64292 -3.9193,-1.25475 -0.01,0.40773 -3.8828,4.66287 -8.615,9.45586 -4.7322,4.79299 -8.3388,8.71854 -8.0149,8.72337 0.3239,0.005 2.6262,-1.10509 5.1161,-2.46645 z m 39.3874,-29.02395 c 2.1517,-1.3994 5.3397,-3.35639 7.0843,-4.34877 l 3.1722,-1.80436 -13.4591,-7.19679 c -7.4025,-3.95816 -17.3609,-9.51388 -22.1299,-12.34591 -4.7689,-2.83203 -9.0271,-5.35779 -9.4626,-5.61286 -0.4354,-0.25506 1.3295,1.89602 3.9222,4.78006 2.5927,2.88403 8.7337,9.78193 13.6467,15.32853 8.4744,9.56744 12.4258,13.73117 13.0396,13.74033 0.1509,0.002 2.0349,-1.14084 4.1866,-2.54023 z m 22.3333,-11.40241 c 7.4948,-3.37548 7.3623,-3.23793 14.4396,-14.99794 2.7512,-4.57145 7.6704,-12.66463 10.9317,-17.98485 8.2558,-13.46807 11.2216,-20.53526 11.7511,-28.00152 l 0.4242,-5.98398 -4.2199,-2.36214 c -2.321,-1.29918 -9.1234,-5.63407 -15.1164,-9.63309 -18.0174,-12.02248 -28.0344,-17.61063 -36.6531,-20.44739 -10.7003,-3.52195 -13.2136,-4.40957 -20.6722,-7.30085 -9.1813,-3.55912 -25.2632,-8.0899 -37.7242,-10.62805 -12.6965,-2.58616 -16.4907,-3.65435 -31.9369,-8.99161 -6.4043,-2.2129 -14.0874,-4.48663 -17.0736,-5.05272 -8.5077,-1.61277 -20.8601,-0.74885 -39.0779,2.73311 -14.8985,2.84756 -16.6622,3.02293 -25.1967,2.50549 -17.901,-1.08533 -35.9648,-4.94192 -45.3817,-9.68889 -5.3148,-2.67916 -7.4472,-4.57399 -20.1004,-17.86071 -12.8628,-13.50691 -14.6986,-15.1287 -20.1132,-17.76815 -3.2771,-1.59751 -9.8921,-3.89362 -14.6999,-5.10247 -7.9387,-1.99608 -11.0871,-2.29937 -34.2837,-3.30264 -32.0273,-1.38522 -41.7596,-2.58724 -72.9182,-9.00601 -13.767,-2.83604 -26.3068,-5.17041 -27.8662,-5.18748 -30.7834,-0.33708 -64.4768,-0.10276 -71.4282,0.49674 -10.9169,0.94152 -32.8335,3.33606 -36.1047,3.94471 -3.7152,0.69128 -17.0671,5.23222 -22.8793,7.78121 -8.8758,3.8925 -35.4665,21.6508 -35.4972,23.70635 0,0.32704 3.338,-0.90002 7.4287,-2.72682 20.555,-9.17925 48.686,-16.13794 81.1691,-20.07859 17.9112,-2.17288 47.5985,-1.73004 73.8641,1.1022 55.7253,6.00808 111.4999,15.19452 129.2743,21.29232 7.3333,2.51578 15.1744,7.67819 31.0423,20.43751 10.0323,8.06688 16.1864,12.39094 20.946,14.71717 18.7292,9.15377 55.2491,24.02429 63.0525,25.67425 6.4218,1.35785 23.5769,10.41878 47.9105,25.30521 l 19.2971,11.8053 7.5282,-0.0882 c 7.3133,-0.0857 7.6455,-0.0108 11.637,2.62402 8.9469,5.90589 17.1542,12.82327 25.8216,21.76329 7.3438,7.57486 10.6595,10.31826 17.3571,14.36102 21.6375,13.06075 43.6686,24.88323 46.5035,24.95504 0.9796,0.025 4.8338,-1.32987 8.565,-3.01039 z m 43.9817,-104.01215 c 7.2045,-30.66606 7.4454,-32.25675 7.9663,-52.5958 0.4737,-18.49442 2.5619,-45.2344 4.8838,-62.54055 1.0146,-7.56268 2.1827,-11.51616 8.0127,-27.12158 3.7537,-10.04761 7.3595,-20.59662 8.0129,-23.44225 2.5725,-11.20304 1.1883,-31.73251 -4.6061,-68.31468 -6.6582,-42.03498 -17.4714,-94.51185 -22.2959,-108.20227 -0.9337,-2.64968 -2.798,-8.36401 -4.1429,-12.69852 -4.1704,-13.44087 -16.6509,-39.51501 -27.7468,-57.96847 -10.8643,-18.0681 -24.55,-35.25767 -33.12,-41.59947 -3.8812,-2.87211 -6.6077,-3.19543 -16.3356,-1.93723 -3.8919,0.50336 -6.384,1.34218 -8.4755,2.85277 -6.9074,4.98905 -11.7158,12.17451 -14.1476,21.14174 -0.7119,2.6251 -3.0849,11.21572 -5.2733,19.09026 l -3.9789,14.31733 -1.0215,23.94601 c -1.1948,28.01257 -2.8866,52.76444 -4.1445,60.63996 -0.4899,3.06771 -1.8497,9.33723 -3.0216,13.93227 -1.1718,4.59505 -2.8978,14.27358 -3.8354,21.50786 -0.9375,7.23428 -2.1765,15.18382 -2.7534,17.66563 -0.8664,3.72767 -0.8617,4.7449 0.028,5.84942 1.7327,2.15231 6.3687,4.26766 15.5897,7.11341 10.4341,3.22012 13.8955,4.93908 15.711,7.80218 1.8502,2.91791 1.155,8.52625 -1.3817,11.14695 -3.4686,3.58344 -6.199,3.6482 -17.3794,0.4122 -5.5499,-1.60634 -12.835,-4.25486 -16.189,-5.88559 -3.354,-1.63073 -6.578,-2.78904 -7.1643,-2.57402 -1.3612,0.49917 -8.0034,12.24509 -8.0326,14.20487 -0.012,0.81292 3.2522,4.84514 7.2542,8.96048 5.4157,5.56914 9.0322,8.47877 14.1431,11.37885 3.7767,2.14302 7.6496,3.90809 8.6065,3.92238 2.6907,0.0402 6.8991,2.41628 8.3599,4.72004 1.7466,2.75457 1.7291,7.4204 -0.037,10.03085 -2.3807,3.51767 -5.1124,4.75462 -10.0962,4.57167 -7.6046,-0.27916 -24.5821,-10.09627 -34.6796,-20.0533 -1.9881,-1.96035 -3.8361,-3.10713 -4.7483,-2.94644 -1.6998,0.29943 -10.855,15.12331 -10.9211,17.68348 -0.072,2.7619 6.6231,12.02644 12.8995,17.85175 3.3096,3.07161 9.2181,7.42964 13.13,9.6845 3.9119,2.25487 7.9678,4.94813 9.0131,5.98503 5.9558,5.90819 0.3202,16.8601 -8.0823,15.70631 -4.2851,-0.58842 -19.5072,-9.83121 -25.9437,-15.75301 -2.9594,-2.72273 -7.2174,-7.18919 -9.4622,-9.92547 -2.2448,-2.73628 -4.6537,-4.97906 -5.3533,-4.98396 -0.6995,-0.005 -3.0673,1.97736 -5.2616,4.40504 -3.9553,4.37584 -3.9785,4.43231 -2.6798,6.53925 0.7206,1.16891 2.2351,4.11591 3.3657,6.54889 2.741,5.89858 15.8247,19.3325 24.3912,25.04434 3.5656,2.37736 7.0281,5.18224 7.6944,6.2331 4.3428,6.84888 -3.0373,16.362 -10.79,13.90852 -8.2491,-2.6106 -27.9818,-19.96632 -35.3316,-31.0756 -2.0892,-3.15791 -4.2778,-5.59805 -5.031,-5.60929 -1.2786,-0.0191 -6.1099,6.50614 -14.6543,19.79247 -2.0238,3.14693 -6.9779,9.12518 -11.0091,13.28501 -9.7505,10.06152 -11.0357,11.77355 -19.9272,26.54422 -4.1933,6.96601 -9.2207,14.8438 -11.172,17.50618 -3.9711,5.4182 -4.2366,6.72934 -2.0974,10.35834 2.5224,4.27918 8.2834,6.48453 21.536,8.24408 12.7258,1.68961 17.9076,1.44501 32.7407,-1.54556 4.1859,-0.84392 10.1215,-1.8862 13.1902,-2.31618 4.4727,-0.62669 6.2132,-1.30797 8.7737,-3.43425 6.4345,-5.34327 16.1526,-7.0711 23.9976,-4.26664 3.8368,1.37163 11.9286,8.22354 12.687,10.74315 0.5851,1.94371 15.0953,6.96219 28.254,9.77189 14.8666,3.17437 36.4621,9.10151 44.5451,12.22588 6.8535,2.64913 9.2784,3.505 23.4384,8.2726 10.0518,3.3844 23.1268,10.77934 44.7491,25.30921 3.2619,2.19198 6.0061,3.77998 6.0982,3.5289 0.092,-0.25109 1.5558,-6.36619 3.2527,-13.58914 z"
         id="path2844-5"
         sodipodi:nodetypes="csssssssssssssssssssssssssssssssssssssssssssssssscsssssssssssssssssssssssssssssssscssssssssssssssssssssssssssssssssssssssssssssssssssssssssssssssssssssssssssssssssssscccsssssscssssssscssssssscsssssscssssssscssssssscssscsssssssssssssssssssccssssssssssssssssssssssssssssssssssssssssssscssssscsssssssscsssssssssscsssssssssssssssssssssssssssssssssssssssscsssssssssssssssssscsssssssssssssssssscsssscssscsssssssssssssssssssssssssssssssssssssssscssssssssssssssssssssssssssssssscsssssscssssssssssssssssscccssssscsssssssssssssscsssssssssssssssssssssssssssssssscsssssscssssscsssssscssssssssssssssssssscsssssssssssssssssssssssssssssssssssscssscsssssssssssssssssssssscssssscsssssccsssssssssssssscssssssssssssssssssssssssssssssssssssssssssssssssssssssscs" />
      <path
         sodipodi:nodetypes="sssssssccssssssssssssssssssssssccssssssccssssssssssscsccssssssssssccssssssssss"
         style="fill:url(#linearGradient3736);fill-opacity:1;stroke-width:3.65345;stroke-linejoin:round;paint-order:fill markers stroke"
         d="m 373.99702,777.2101 c -0.33514,-0.259 -1.35131,-0.72536 -2.51948,-2.0368 -1.44914,-1.62688 -3.22745,-4.36106 -5.51169,-7.14089 -3.5845,-4.36224 -9.1445,-10.78469 -12.5286,-14.66863 -6.87535,-7.89063 -11.92804,-15.25598 -17.21246,-25.71099 -2.87463,-5.68732 -6.63914,-10.87596 -13.01139,-18.79167 -10.32575,-12.82682 -9.91164,-14.2234 -3.54725,-16.02314 7.10684,-2.00966 22.40298,-8.89494 27.21015,-12.42757 4.95565,-2.67723 7.87536,-5.99939 11.27597,-8.50839 4.88275,-4.65152 4.56563,-4.32615 4.61908,-7.90557 0.0471,-3.15235 -0.40887,-5.30346 -1.8525,-7.03768 -2.23638,-2.68655 -6.11241,-3.8865 -9.41614,-2.64816 -1.19963,0.44965 -5.3164,3.12751 -9.14477,5.94737 -4.93608,3.63573 -10.71653,7.25981 -16.60533,9.94156 -8.66378,3.94555 -17.33968,6.13745 -22.08549,5.66738 -2.64674,-0.26212 -2.87225,-1.74006 -4.44639,-4.71879 -4.22249,-7.99016 -2.42311,-6.71563 7.39003,-11.12987 11.06033,-4.97525 16.62824,-9.08924 24.67655,-16.56405 8.66329,-8.0459 10.09485,-11.05506 6.31454,-16.83474 -2.42596,-3.70909 -7.58019,-4.8584 -9.88486,-3.91008 -1.38681,0.57065 -6.01501,3.81866 -10.33971,7.5219 -2.84227,2.43388 -5.53072,5.248 -8.97427,7.39422 -7.65764,4.77263 -16.57367,7.96411 -21.68688,8.52002 -1.51554,0.16482 -2.93512,-0.33249 -3.77441,-0.71642 -3.04313,-1.39222 -13.53489,-13.63535 -13.50782,-15.44802 0.004,-0.2477 0.95294,-1.03695 2.10705,-1.82561 0.72562,-0.49594 2.07789,-1.48268 2.7814,-1.84358 4.18868,-2.14835 15.60214,-9.95758 20.4683,-14.57796 11.32703,-10.75504 12.90736,-19.91275 6.20671,-24.4454 -4.63906,-3.13807 -9.42039,-1.53961 -14.41645,5.06786 -0.97774,1.29312 -1.86271,2.5691 -3.2394,4.00179 -5.33454,5.5514 -13.7727,11.14742 -20.41457,14.364 -6.86131,3.70083 -5.99632,4.96469 -11.62707,0.6921 -1.91626,-1.45407 -6.90081,-7.04734 -7.8226,-10.10674 -0.39988,-1.32712 1.05213,-2.47251 2.76174,-4.36923 7.13214,-7.91269 16.95773,-22.19847 17.66474,-25.10509 0.60278,-2.47813 -0.30238,-6.35627 -2.71569,-9.01086 -2.33419,-2.56758 -8.69767,-3.01141 -11.34258,-0.69033 -2.55499,2.24215 -7.78632,9.46113 -8.4087,10.24768 -0.88796,1.1222 -4.57612,6.0802 -6.29426,7.63759 -6.88241,6.96827 -4.90124,8.03482 -13.11783,3.35789 -1.86749,-0.86358 -6.01778,-3.66968 -6.89582,-3.89732 -1.62333,-0.4208 -24.46239,-12.2037 -29.57881,-15.76855 -6.98559,-4.86718 -37.53491,-18.04764 -64.4607,-27.12961 -20.65907,-6.96824 -21.730911,-8.06352 -37.100191,-18.25735 -2.74017,-1.81744 -8.32903,-5.50528 -12.285786,-8.05866 -13.934049,-8.99194 -20.105777,-16.30554 -19.759594,-27.98758 0.355755,-12.00471 4.01034,-17.59188 16.171632,-23.6313 11.550582,-5.73613 29.563552,-11.15654 50.069379,-15.30628 10.66379,-2.15802 22.02164,-3.85297 33.45305,-5.324 14.73751,-1.89646 44.19496,-1.36392 62.82921,0.45891 26.67483,2.60937 72.5682,8.62407 91.29846,11.96145 34.97004,6.23098 44.45506,8.00897 53.16861,12.92702 5.56727,3.70768 10.9181,7.1072 15.78357,11.1244 11.40861,9.41957 22.47768,17.9861 36.01261,24.42758 6.46567,3.05068 21.43463,8.77664 32.30011,13.74497 1.90355,0.87797 3.88795,1.74336 4.84249,1.99475 0.95462,0.25138 5.76861,2.20252 10.50102,4.00089 4.73241,1.79837 9.60391,3.07029 10.08443,3.10629 2.46071,0.1843 6.94903,2.24487 12.72627,5.21767 14.10432,7.25766 10.45416,5.60908 44.9288,26.49649 2.44936,1.48403 6.83239,3.76046 6.59029,4.28014 -0.47489,1.0197 -11.02482,10.1842 -19.91401,17.0712 -13.48163,10.44489 -25.0363,20.84245 -30.98096,27.48248 -1.74627,1.95049 -2.74809,2.34607 -9.07847,11.41041 -2.27023,3.25078 -5.24047,7.5296 -6.63502,9.03838 -4.49109,4.85897 -12.79168,16.73354 -17.13793,23.22692 -5.4344,8.47126 -9.58067,19.21275 -14.68663,25.31412 -2.71233,0.51316 -5.62129,0.68322 -9.388,1.58694 -10.94542,2.62588 -15.78848,6.2372 -19.72409,12.8038 -2.6985,4.50244 -2.88257,16.89325 -0.63973,21.56852 1.57732,3.28795 2.94384,3.46914 2.06944,5.75077 -1.32592,3.4597 -5.2361,24.77075 -6.79461,33.39158 -0.40997,2.26772 -0.85791,3.48897 -1.65998,6.00842 -0.59156,1.85831 -1.74915,3.7318 -3.01641,6.26707 -0.54968,1.0996 -1.28543,2.28955 -1.8582,3.6658 -4.39882,10.5696 -9.72932,16.1518 -14.65285,16.252 -1.56503,0.0317 -3.09141,-0.21046 -4.60925,-1.38342 z"
         id="path2846-2" />
      <path
         sodipodi:nodetypes="scccsssssssssssssssssssccsssccsssccssssssssscscssssssssssssssssssssssssss"
         style="fill:url(#linearGradient4030);fill-opacity:1;stroke-width:3.65345;stroke-linejoin:round;paint-order:fill markers stroke"
         d="m 693.05579,526.15547 c -1.89546,-1.21082 -6.47128,-3.6862 -8.70446,-5.51642 -4.28224,-1.79411 -19.79464,-12.5791 -27.36729,-16.30091 -11.68132,-6.57053 -27.56085,-11.11108 -39.1325,-15.59085 -7.91669,-3.79412 -26.30785,-7.67624 -45.20436,-12.18828 -3.72317,-0.88901 -9.26076,-2.67081 -12.5801,-3.67763 -3.14075,-0.95265 -11.31634,-3.69559 -13.32246,-5.17729 -1.61696,-1.19424 -0.94262,-1.76592 -3.33175,-4.07463 -5.72826,-5.5354 -12.46389,-8.68831 -15.50633,-8.67241 -3.78977,0.0198 -8.30527,-0.6645 -16.52848,4.23135 -2.20745,1.31425 -2.89761,3.53909 -10.82705,4.79187 -4.57069,0.72213 -10.43948,1.81068 -12.36245,2.2334 -12.61404,2.77283 -16.99028,2.62011 -23.97809,2.52867 -4.94209,-0.0647 -12.27779,-1.11005 -18.16574,-2.42358 -2.55829,-0.57072 -4.9524,-1.22964 -6.649,-1.87271 -3.04359,-1.15365 -7.05611,-4.06491 -7.44598,-8.89905 -0.0458,-0.5707 2.6345,-5.75788 5.72468,-10.31323 3.43702,-5.06666 6.63254,-9.74965 7.28618,-10.88776 1.64277,-2.86031 9.75177,-16.1113 12.32106,-19.37974 1.11689,-1.42082 5.22787,-5.81389 9.04142,-9.76379 3.81355,-3.94991 6.74655,-7.54295 7.82012,-8.66242 0.89012,-0.92821 2.64439,-3.87426 4.60407,-6.75537 8.28462,-12.17993 12.19704,-17.66934 13.47004,-17.72966 0.79784,-0.0378 3.14303,2.79534 5.09713,5.52487 5.5714,8.76071 18.2709,18.94751 24.48928,24.67327 1.648,2.04711 10.96854,6.84428 13.05773,6.87547 5.10006,0.0762 9.67901,-4.14076 9.73195,-9.83615 0.0396,-4.25598 -1.58905,-5.64211 -8.72775,-10.55192 -8.61718,-5.92668 -23.28982,-20.41865 -25.94204,-27.75521 -4.18589,-7.62601 -3.52774,-5.71758 0.82722,-10.76125 2.08195,-1.98142 4.00744,-4.31099 4.87162,-4.30437 0.86419,0.007 5.20069,3.92247 9.34602,9.11864 6.59208,8.26301 26.40116,21.5388 33.25167,21.6411 3.91185,0.0584 8.92095,-5.23708 8.97954,-9.16059 -0.4774,-6.41221 -3.34119,-6.63565 -5.26885,-8.53039 -0.97184,-0.93288 -3.76869,-2.65977 -6.11596,-3.84557 -10.82478,-5.46859 -20.3587,-16.23711 -25.17661,-24.64952 -1.98938,-3.4736 -1.25142,-3.59372 0.43177,-6.78079 1.49455,-2.83006 6.8893,-12.92567 9.49991,-14.08823 0.56895,-0.25339 2.36806,0.64421 4.03137,2.21658 5.72114,5.4082 11.96731,10.21969 15.78393,12.32272 14.29285,7.87553 14.98273,8.08219 19.8928,8.28478 5.88286,0.24272 9.07235,-2.04209 10.46253,-5.61685 0.99041,-2.54655 0.77078,-3.71385 -0.0237,-6.71872 -1.03346,-3.90891 -5.82566,-5.67212 -10.08658,-6.9096 -11.18746,-3.7745 -28.84596,-19.73408 -28.88939,-24.12683 -0.0351,-3.54745 6.21592,-14.33749 8.27499,-14.16109 0.43667,-0.22017 4.35668,1.43598 8.36387,3.12142 7.39131,3.10887 7.9761,3.31875 19.14668,6.44217 4.02856,1.12641 7.58831,1.71022 9.25315,0.95002 5.34233,-2.43941 6.95457,-8.56112 4.49438,-14.28398 -0.38147,-0.88722 -2.86483,-2.76355 -12.49146,-6.12024 -6.24525,-2.17764 -10.93212,-3.34036 -13.84518,-4.68258 -4.21375,-1.9415 -5.08478,-3.95519 -4.97161,-5.95484 0.50965,-9.00693 6.93116,-43.00123 7.65867,-45.78596 2.6262,-10.05345 4.25654,-19.94387 6.88523,-76.99172 0.40153,-8.71486 0.08,-13.86546 0.83462,-17.92721 0.59121,-3.18265 1.44442,-6.08383 2.53335,-9.99674 1.52705,-5.487608 3.8271,-14.115855 5.24626,-19.412233 2.99379,-11.172756 4.34196,-13.661791 9.88427,-20.261824 5.29804,-6.3091 9.16201,-7.928416 18.50299,-8.564603 9.41037,-0.640926 11.19196,0.418257 20.82502,10.661216 14.61144,15.536636 26.62843,34.485434 40.98454,64.189294 2.99139,6.18936 6.70388,14.78898 8.31759,18.88599 5.39851,13.7063 13.50085,40.97358 16.07727,57.78323 0.40662,2.6533 1.82435,7.49234 2.50243,10.61705 1.37628,6.3424 5.59174,28.30144 8.91345,48.85346 1.20692,7.4675 3.01997,20.19354 4.18549,28.34207 5.78427,40.43956 5.44518,46.18653 -3.63806,69.93024 -8.31568,21.73704 -9.31565,25.22879 -10.92198,38.88227 -2.9568,25.13209 -3.2626,36.59272 -3.79938,56.02744 -0.57402,20.78467 -2.25184,26.83745 -6.96114,47.04676 -1.31952,5.66247 -3.97604,20.10549 -4.94055,19.48939 z"
         id="path2848-9" />
      <path
         sodipodi:nodetypes="cccsssssssssscsssssssssssscccsssssssssscssssssssssssssssssssssccsssssssccssscc"
         style="fill:url(#linearGradient4032);fill-opacity:1;stroke-width:3.65345;stroke-linejoin:round;paint-order:fill markers stroke"
         d="m 771.4132,675.09853 c 1.69431,-6.61141 3.25477,-12.80709 3.55012,-13.9295 2.19323,-9.65255 4.43444,-16.30355 6.29755,-26.22812 l 1.07378,-26.57201 c 0.63899,-15.812 0.10993,-37.84936 -1.55737,-54.39838 -0.80126,-7.95395 -1.47468,-14.32171 -1.34429,-14.70428 0.14384,-0.42193 3.01716,-3.04634 5.38385,-5.63235 8.54918,-9.34119 10.50899,-19.13601 7.31047,-27.39384 -1.96748,-5.07951 -7.39709,-10.17219 -11.82009,-12.74571 -2.26059,-1.31531 -4.26231,-3.20362 -5.2025,-5.27177 -0.21181,-0.46602 -3.44426,-6.67596 -3.7115,-7.45713 -0.82539,-2.41225 -2.24726,-4.77031 -2.82079,-5.85182 -1.09045,-2.0563 -5.65075,-10.88684 -6.13301,-11.86621 -0.49791,-1.01114 -2.38158,-4.42401 -2.36876,-6.16986 0.008,-1.09485 -0.4386,-6.53413 -1.12126,-9.89849 -3.22597,-15.89754 -3.20334,-22.57413 1.33315,-26.44038 2.46188,-2.09814 5.11655,-1.92715 17.04172,1.81356 3.06117,0.96022 12.18504,2.76936 19.82279,4.70974 11.00216,2.79514 14.86276,3.94741 25.31611,9.43948 5.50393,2.89174 14.21043,5.99289 17.74972,6.78109 11.37532,2.53335 20.46658,5.46148 20.52169,7.09315 0.12763,3.78154 -2.11976,4.70567 -4.86688,8.70398 -8.24291,11.99714 -16.98857,32.5387 -17.10071,40.04834 -0.0595,3.98337 1.30716,7.11425 5.48965,9.02048 1.6976,0.7737 4.53292,1.47512 6.93658,0.36658 2.82355,-1.30221 3.97985,-1.92311 7.83106,-13.17151 4.6906,-13.69989 12.3,-27.72528 19.10415,-32.76607 4.5278,-4.09687 3.59095,-4.41513 10.0746,-1.07574 6.62087,3.71906 7.09545,2.73537 3.13915,8.06696 -4.03089,5.80099 -7.51931,13.63015 -10.47582,21.16185 -1.74951,4.45681 -5.8258,21.396 -3.34975,25.04585 4.65269,6.85835 14.67064,5.07259 16.85961,-1.10691 0.6284,-1.77401 2.12418,-6.60144 2.97493,-10.88823 2.68006,-13.50506 8.0069,-21.35242 13.79423,-28.1699 1.78073,-2.09779 2.71136,-3.39576 3.60898,-3.83616 0.38363,-0.18822 2.28713,0.32445 4.09048,0.74526 1.91,0.4457 6.78586,1.5112 10.25035,2.14728 3.00043,0.55088 6.46532,1.20747 6.51304,1.46749 0.61037,3.32697 -0.91588,5.02785 -3.95115,12.02454 -3.78079,8.71518 -6.80504,22.26976 -6.86349,28.37697 -0.0716,7.5195 4.26253,13.46361 10.20164,13.64051 5.78128,0.1722 8.873,-4.19746 9.2972,-14.18904 0.13757,-3.23846 1.34499,-7.87647 1.75222,-10.37781 1.09034,-6.69764 8.93928,-23.96557 11.71038,-24.25823 2.34071,-0.2472 15.9861,2.53844 16.38199,2.90958 0.14296,0.13398 -0.24802,4.29108 -0.48369,8.26818 -0.29314,4.94859 -0.11407,14.6564 -0.10997,18.07268 0.0137,10.61709 1.13386,11.483 2.72033,13.11449 5.11529,5.26042 13.30729,2.28884 15.32767,-2.57087 1.05248,-2.53161 1.31533,-6.42511 1.19304,-16.28238 -0.0895,-7.20793 0.80968,-14.75311 1.77301,-16.32124 0.19983,-0.32536 2.46466,-0.52441 5.59929,-0.86861 4.3703,-0.4799 13.2327,-2.19455 22.9091,-3.96411 2.4024,-0.43933 10.0245,-1.20771 16.7392,-1.84312 14.2741,-1.35074 38.952,-7.10578 47.8856,-9.6443 3.3823,-0.96111 9.5007,-2.79868 13.589,-3.83134 4.0883,-1.03265 11.134,-3.14714 15.9486,-4.68129 4.8146,-1.53415 10.0649,-2.75584 14.1804,-3.41652 1.1482,-0.18432 3.5328,-0.46875 5.2856,-0.66125 7.9587,-0.87398 15.7791,-1.45322 24.1103,-1.57385 11.1277,-0.16112 20.8917,-0.10625 25.8439,1.72674 2.7356,1.01254 6.3034,2.76753 8.6438,4.79705 3.6125,3.13285 5.9503,7.8428 8.2665,15.37549 1.5561,3.82093 0.532,6.52461 -0.7496,9.68975 -4.4011,12.25474 -16.3479,29.51372 -33.8569,48.50346 -4.8949,5.30882 -10.4385,10.70259 -16.1486,16.22134 -15.3972,14.88119 -23.4119,21.3075 -32.7559,27.77403 -2.3818,1.64833 -4.5214,3.30982 -6.1109,4.4398 -2.0897,1.48553 -4.1767,3.48714 -25.6379,16.14112 -2.0945,1.23492 -12.7561,7.53136 -23.5839,13.61964 -14.4753,8.13897 -40.4281,22.26803 -63.1678,33.15272 -16.73245,8.00918 -30.19476,12.98338 -39.01146,14.40098 -4.11577,1.1993 -11.40959,0.41979 -26.31989,0.0831 -26.28198,-0.59358 -30.41728,0.56095 -38.17304,2.16363 -15.43627,3.18981 -42.75699,9.89816 -53.57235,13.22326 -12.55744,3.86066 -17.70363,5.87371 -53.16364,8.65452 -16.79247,1.31687 -23.36353,2.1359 -23.45214,1.97212 0.79166,-5.07451 2.42983,-10.48318 3.55852,-14.89844 z"
         id="path2850-5" />
      <path
         sodipodi:nodetypes="ssssssssssccsssccsccsssssssssscsssccssssscsscssssssssssccccssssssccssssssssccsssssssscccsssssss"
         style="fill:url(#linearGradient4034);fill-opacity:1;stroke-width:3.65345;stroke-linejoin:round;paint-order:fill markers stroke"
         d="m 965.40291,1158.6883 c -10.34773,-1.9589 -22.47484,-5.9327 -33.81703,-10.4756 -19.18374,-7.6837 -36.24505,-16.7486 -39.54942,-18.6502 -3.69107,-2.1241 -10.15046,-5.4617 -16.80874,-9.8954 -10.46319,-6.9675 -21.971,-15.6311 -27.41138,-20.393 -1.82319,-1.5958 -6.09016,-5.1715 -9.59134,-8.2073 -3.91379,-3.3936 -8.50125,-7.5549 -13.25516,-11.8234 -19.61534,-17.6124 -44.14593,-41.5629 -60.79768,-58.8419 -13.24722,-13.7462 -21.25246,-21.896 -26.52084,-29.89091 -6.24691,-9.47979 -8.77161,-18.69704 -13.40044,-36.134 -2.5818,-9.72577 -4.78701,-16.5252 -7.8089,-22.62486 -2.77411,-5.40483 -5.99212,-10.58131 -8.6049,-15.22648 -2.73073,-4.80683 -5.38264,-8.83215 -12.10217,-20.03741 -4.66678,-7.78218 -13.66087,-20.61435 -15.71774,-23.19558 -0.44516,-0.55864 -1.12991,-1.18339 -1.79016,-2.09531 -1.13559,-1.56845 -2.21916,-3.46439 -3.14,-4.99305 -7.51016,-12.04637 -12.54431,-27.88078 -17.74844,-39.59536 -1.33401,-2.94128 -5.99844,-14.17536 -10.26811,-24.78079 -4.26967,-10.60543 -9.65707,-23.73478 -11.91705,-29.0813 -3.39465,-6.10922 -5.55524,-13.58161 -8.00403,-18.93358 -1.47495,-4.31277 -3.88685,-9.45014 -4.4964,-11.13629 -3.32567,-9.19926 -18.57052,-41.80608 -26.03841,-55.90258 -2.13211,-4.02466 -3.30101,-4.59802 -2.71804,-6.8225 0.68249,-2.60422 4.89697,-4.04949 8.80975,-6.20971 3.91287,-2.16031 8.64589,-5.40419 10.51322,-6.87692 1.86733,-1.47273 5.22326,-3.76698 7.22864,-5.33302 2.00538,-1.56611 7.77497,-6.3611 12.6366,-10.387 9.79282,-8.10938 15.32997,-10.58711 26.18642,-15.55118 3.96551,-1.8132 7.58232,-3.63863 11.40788,-4.7715 9.6083,-2.84545 19.95385,-3.3503 36.19169,-3.21812 12.14193,0.0988 14.59835,0.81614 16.82705,2.52919 4.60962,3.54353 3.84704,9.14196 -1.31113,33.70533 -1.78197,8.48618 -3.21154,18.32521 -3.46732,22.99679 -0.40534,7.40269 1.41581,13.9642 3.65288,21.83477 1.64994,5.80506 3.41472,11.98067 4.29528,13.88068 1.62698,3.98957 6.97992,11.20532 11.84428,15.91303 2.42843,2.33478 9.8866,7.53433 14.69654,9.80484 16.46521,7.77234 27.282,13.39663 31.22234,16.19472 2.41935,1.71797 8.59131,6.0381 14.23915,9.03285 7.93654,4.2083 12.72809,5.68374 16.67941,5.84227 6.08507,0.24406 8.07643,-0.44193 11.26624,-1.90793 7.73892,-3.55674 11.73997,-9.75575 14.57104,-21.41887 1.88377,-6.4196 3.79324,-12.54945 9.09195,-17.35746 6.33947,-5.75236 14.26035,-8.07957 23.83598,-12.73306 9.2255,-4.48333 15.50763,-8.72251 21.01716,-9.16339 1.94186,-0.28083 5.5254,-0.18331 7.25667,0.4169 3.70384,1.28404 4.7723,4.86096 4.4428,13.77929 -0.0468,1.2587 0.38326,11.77477 0.81296,14.04864 3.24,17.1453 0.68916,26.7997 -0.52293,38.86981 -1.10498,10.99985 -1.02613,11.70485 -0.41298,21.45713 0.43838,6.97152 0.48458,13.76203 0.37117,15.05041 -0.29758,3.37913 -1.78045,2.90252 -6.50123,1.28764 -1.60622,-0.54937 -13.55245,-3.90151 -21.48971,-5.2268 -3.72452,-0.62191 -10.67761,-1.04913 -16.31762,-0.86075 -8.40973,0.28088 -9.98809,0.55051 -12.48487,2.27374 -5.18837,3.58093 -5.73341,9.69457 -1.71506,14.21113 3.37313,4.49694 9.60392,2.71654 14.74325,2.91229 14.25072,0.22398 22.6414,1.13856 35.46796,6.64071 8.35862,3.05041 5.55814,3.60483 5.2754,9.13502 -0.004,2.94222 -1.16789,6.61783 -1.59871,7.04485 -0.46599,0.46173 -4.39496,-0.34302 -8.67803,-1.38635 -5.32646,-1.29749 -10.3351,-2.33888 -19.67599,-2.5425 -8.2229,-0.1795 -21.03334,1.32542 -24.55868,4.26729 -2.06581,1.724 -2.57677,3.34701 -2.60733,6.45241 -0.0379,3.87781 0.33519,4.64958 2.01641,6.49358 3.15208,3.45724 7.66519,3.31178 15.12666,2.58934 14.11694,-2.16183 26.22769,0.88646 38.43004,6.52353 l 1.04647,10.17304 c 0.80746,7.84931 1.15765,10.63868 0.3036,11.14109 -0.92086,0.54175 -6.37324,0.29596 -11.89665,-0.056 -27.90939,-1.77824 -42.63025,6.21402 -38.54058,16.7428 0.86128,2.2173 2.25625,3.71358 3.74645,4.51258 3.08681,1.65517 10.04066,0.34626 10.63173,-0.0512 2.15839,-1.45185 15.90191,-3.06632 21.96954,-2.40815 7.52442,0.81611 16.53551,3.12283 17.18558,4.82349 0.29472,0.77092 1.34409,5.33643 1.33665,9.02276 -0.0575,3.86297 1.25613,6.3272 -2.34734,7.89572 -1.76158,0.7669 -6.24553,1.48371 -8.88908,2.02817 -9.20003,1.89493 -22.07124,7.34688 -24.08868,9.92398 -4.70648,6.01229 -0.79785,14.59743 7.26036,14.71776 1.40398,0.021 5.28052,-1.19365 8.42415,-2.1669 10.56119,-3.26955 19.7858,-6.02992 22.75999,-4.36948 0.88383,0.49347 2.36496,3.3391 3.41431,5.88955 1.04936,2.55037 3.62901,7.54727 5.59884,11.1704 7.03796,12.94513 7.88109,14.91224 12.62699,26.14117 2.64307,6.2536 6.67407,13.7793 8.74919,16.9993 4.05777,7.6853 9.28487,14.8343 13.16421,21.327 2.6058,3.8452 5.47504,7.7144 7.44326,11.0224 1.07113,1.8255 4.89549,8.0361 7.99145,12.3948 10.94902,15.415 12.45545,17.8605 23.36648,48.752 7.34712,20.8012 5.87936,30.9328 -9.11224,41.2236 -1.19135,0.8178 -2.17902,1.689 -3.34919,2.1104 -1.70579,0.6143 -3.91867,0.3824 -6.51786,0.2886 -2.83157,-0.1022 -3.59895,0.3778 -8.01069,-0.4574 z"
         id="path2852-2" />
      <path
         sodipodi:nodetypes="cssssccsssscsssccccsssssscscsssssssccsssssssscssssscssssssssssssssssscscccssscc"
         style="fill:url(#linearGradient4036);fill-opacity:1;stroke-width:3.65345;stroke-linejoin:round;paint-order:fill markers stroke"
         d="m 278.00126,1161.5103 c -4.24152,-2.1251 -7.32045,-4.0379 -9.29284,-6.5041 -3.51444,-4.3944 -3.99638,-10.4497 -4.70497,-21.9088 -0.88918,-14.3796 0.20792,-34.7525 2.79294,-54.1252 2.59813,-19.471 6.69706,-37.9316 10.90014,-48.2811 0.87041,-2.1433 2.95956,-8.3558 4.77367,-13.6706 14.65531,-38.41605 29.29216,-68.64058 49.0234,-105.82445 16.4478,-30.6605 20.9878,-37.84378 27.16203,-43.39933 4.90927,-4.41735 17.64018,-13.38603 26.60876,-19.17245 3.57483,-2.30648 7.86379,-5.43623 9.65918,-6.62043 3.09328,-2.04027 9.93241,-8.62669 19.79808,-19.668 2.43661,-2.7269 5.7113,-6.97793 7.99739,-9.06077 8.77703,-11.26051 23.18142,-29.52082 26.08208,-33.33335 4.45583,-5.85661 17.8753,-18.47765 28.34906,-27.50991 21.61384,-18.63922 21.96892,-19.32209 22.94326,-16.64241 3.74625,10.30242 13.17213,34.28047 15.99,40.07708 2.21625,3.41283 2.90255,6.39364 4.46946,8.33018 2.91865,4.78584 14.39936,20.76332 16.02374,23.93193 3.28892,4.89951 6.30263,8.97384 9.84476,13.46516 0.6398,0.91233 1.75696,2.38818 3.35897,4.18811 1.60209,1.79993 3.96514,4.94011 5.81151,7.36349 1.84637,2.42338 6.51378,7.6382 10.58617,12.03927 4.07247,4.40108 6.73932,7.90706 8.07997,9.59622 1.68802,2.12677 3.05804,3.43195 2.97105,4.02073 -2.25008,15.2302 1.02139,33.17244 13.28616,39.01045 4.32827,2.06028 8.64467,1.52938 14.25005,1.61189 6.02457,-0.0471 9.5498,-0.71361 13.47738,0.32289 2.64337,0.69761 5.22853,2.2072 8.86395,4.13749 9.5114,5.6441 9.08382,6.84959 20.08679,18.52816 6.19932,6.57992 12.40802,14.03505 13.72579,16.40006 2.1728,3.89963 2.09643,5.56412 1.01776,7.75252 -0.89738,1.82068 -2.6022,2.70159 -6.56553,3.99454 -6.21299,2.02684 -8.41035,2.84753 -17.69264,6.8499 -19.10311,8.2368 -18.2442,7.90139 -33.8948,10.63856 -8.72191,1.52532 -14.421,3.42349 -21.87672,6.46218 -5.54419,2.25958 -11.47002,3.86795 -13.01112,4.25779 -5.63782,2.02017 -4.02448,1.23181 -3.79392,-5.35609 0.29353,-6.44007 -1.88881,-20.80477 -3.94353,-29.71821 -1.88624,-8.18274 -4.4212,-13.9526 -7.95525,-18.2581 -1.49725,-1.82416 -4.20238,-2.89497 -5.55483,-2.97587 -5.2955,-0.31669 -10.11176,3.35573 -10.88427,5.58066 -1.04626,3.0134 -1.80195,5.7329 0.91964,13.03476 3.95067,10.59971 5.79894,22.02025 5.27108,33.06545 -0.24522,5.13044 -0.39262,9.13903 -1.53746,10.42096 -0.91448,1.02402 -4.53029,1.59462 -5.96006,1.78716 l -5.06761,0.6823 -0.3704,-7.41075 c -0.81635,-16.33524 -10.98965,-39.58141 -14.69427,-42.17743 -3.80288,-2.66489 -9.03337,-2.75122 -12.55825,-0.18753 -5.11078,3.71715 -6.09468,8.18146 -1.224,18.99139 4.82963,10.71914 7.40747,20.33032 6.43564,29.92331 l -0.25577,7.9284 -3.59943,1.55429 c -1.73392,0.74877 -5.27657,2.54448 -8.27499,3.77413 -2.91147,1.19387 -5.64872,2.44517 -6.0957,2.15807 -1.50756,-0.9682 -1.86307,-4.26267 -2.62595,-7.38407 -2.6687,-10.91866 -4.08454,-15.48278 -8.20651,-23.56512 -2.37173,-4.65044 -5.61769,-9.15331 -7.12233,-10.46689 -3.09806,-2.70436 -6.56267,-3.9901 -11.40162,-3.29105 -5.53093,0.79894 -10.35666,11.65753 -4.80555,18.10277 5.43129,6.30624 10.54439,19.83277 11.25897,30.03416 0.25195,3.5976 0.4647,6.9742 0.50178,7.1228 0.084,0.3362 -12.48634,5.8387 -13.34962,5.6752 -2.1666,-0.4102 -3.13225,-3.6296 -5.16957,-6.9473 -7.17601,-11.68608 -14.66505,-20.67524 -17.4382,-21.98915 -5.28797,-2.50544 -11.22113,-0.65813 -13.56107,3.52746 -1.76501,3.15722 -2.98224,7.52203 -0.35904,11.49599 0.80533,1.2199 3.47822,5.2839 6.21603,9.0121 2.73781,3.7283 5.96332,8.5416 7.0308,10.724 l 2.18268,4.4626 -10.00607,9.7295 c -5.39866,5.2495 -12.63223,12.9293 -16.76168,16.7138 -9.86118,8.4834 -22.71329,22.6871 -32.02919,33.0173 -6.26046,6.5741 -12.18115,14.4331 -17.0973,20.6954 -4.19788,5.3499 -8.71243,11.5841 -10.23096,13.7177 -4.7621,6.6908 -11.63747,13.5868 -30.94897,28.8184 -11.7603,9.2758 -16.72858,12.8953 -27.36243,13.4393 -4.9634,0.254 -6.44091,-0.4715 -10.4657,-2.7198 z"
         id="path2854-1" />
      <path
         sodipodi:nodetypes="sssscsscs"
         style="fill:url(#linearGradient4038);fill-opacity:1;stroke-width:3.65345;stroke-linejoin:round;paint-order:fill markers stroke"
         d="m 620.2404,625.21419 c -1.74212,-2.05601 -7.89572,-9.24747 -11.83824,-13.20491 -28.26325,-28.37014 -4.91751,-10.85648 6.03933,-4.45878 3.08764,1.80286 9.84277,5.47412 14.54858,7.95178 4.70581,2.47774 11.62488,5.85129 11.60008,6.30898 -0.0252,0.45776 -2.9293,1.77779 -4.3879,2.5322 -1.45869,0.75448 -4.07802,2.46917 -5.3139,3.25278 -1.23588,0.78368 -4.13313,3.02577 -4.50914,3.01368 -0.37607,-0.0136 -4.39662,-3.3398 -6.13881,-5.39573 z"
         id="path2856-8" />
      <path
         sodipodi:nodetypes="ssssss"
         style="fill:url(#linearGradient4040);fill-opacity:1;stroke-width:3.65345;stroke-linejoin:round;paint-order:fill markers stroke"
         d="m 597.05913,647.03858 c 3.30783,-3.54432 5.64784,-6.80436 5.95874,-6.80188 0.58385,7.3e-4 2.95349,1.08458 3.58528,1.86948 0.99307,1.23358 1.91542,3.3351 -0.34872,5.13552 -3.52778,2.80526 -19.66268,12.97541 -20.5571,12.12133 -0.47777,-0.45625 8.05406,-8.78006 11.3618,-12.32445 z"
         id="path2858-8" />
      <path
         inkscape:export-ydpi="96"
         inkscape:export-xdpi="96"
         style="fill:#ffffff;fill-opacity:1;stroke:none;stroke-width:3.65345;stroke-linejoin:round;paint-order:fill markers stroke"
         d="m 626.5099,611.10893 c -9.8452,-5.3957 -23.4448,-12.36235 -30.4603,-17.15442 -2.2753,-1.57021 -3.0187,-2.24521 -6.7966,-5.19584 -4.8791,-3.81077 -7.3028,-6.92375 -11.6819,-11.29559 -8.5273,-8.51326 -15.7591,-14.17976 -22.8134,-18.80079 -3.9554,-2.59107 -4.4492,-2.91269 -11.6104,-2.82291 l -7.9181,0.0993 -18.938,-11.57215 c -27.7489,-16.95605 -37.5382,-21.67396 -51.766,-26.51677 -15.6109,-5.31361 -44.6297,-16.95585 -57.1221,-23.59521 -2.4704,-1.31295 -6.186,-2.80289 -11.2165,-6.38464 -6.3949,-4.55322 -8.6288,-6.67576 -13.2807,-10.28344 -17.1564,-13.30527 -22.4573,-17.05347 -30.0133,-19.72516 -15.2296,-5.38499 -59.7118,-12.56899 -121.6587,-20.25392 -10.6118,-1.31646 -21.6686,-2.6 -45.9159,-2.97138 -20.3219,-0.31125 -27.6464,0.0412 -34.2531,0.76238 -3.4149,0.37274 -6.6561,0.82771 -11.2724,1.55569 -27.8746,4.39564 -52.8322,10.59385 -68.9163,17.55323 -3.3248,1.4386 -9.3235,4.37295 -9.636,3.83545 -0.5826,-1.00212 14.3459,-12.6477 23.4157,-17.56629 30.7721,-16.68769 44.3757,-18.78979 106.7279,-18.54358 43.4605,-0.91617 38.415,0.15089 59.0658,4.52776 37.7432,7.24821 43.3958,8.50426 81.1959,9.65268 22.2612,0.67633 29.0527,2.95474 38.5131,5.96634 10.8577,3.45638 12.6396,5.54984 27.3224,20.3865 9.9248,10.02885 16.2435,16.12295 19.3636,17.62513 9.9795,4.80454 31.9498,9.59653 48.5771,9.84482 5.402,0.0807 12.7306,-1.00062 21.6058,-2.56099 19.2621,-3.38649 30.8401,-3.961 38.1195,-3.00212 3.4375,0.4528 12.2812,3.21966 19.9098,5.76951 7.6285,2.54986 18.8527,6.31396 25.3719,7.42771 18.5317,3.16599 25.4931,5.39675 39.6488,10.44636 2.6557,0.94734 5.3277,2.28346 8.6343,3.42893 23.6087,8.17856 29.002,10.76409 52.5365,25.90461 9.2548,5.95394 18.6847,11.17707 18.9641,11.93091 0.9444,2.54824 -0.9752,12.67484 -4.3844,19.90462 -3.9964,8.47518 -23.2491,40.38196 -26.1776,43.16989 -2.5608,2.43775 -12.6367,7.06927 -15.4718,6.99267 -0.8332,-0.0228 -9.1754,-3.81499 -17.6687,-8.53926 z"
         id="path3575-3"
         sodipodi:nodetypes="ccsssscsssssssssssssccssssssssssssssscsc" />
      <path
         style="fill:#ffffff;fill-opacity:1;stroke:none;stroke-width:3.65345;stroke-linejoin:round;paint-order:fill markers stroke"
         d="m 742.485,683.13957 c -1.8284,-14.0698 0.038,-17.70488 1.9821,-28.01418 2.2816,-12.09975 2.1401,-20.55376 -0.178,-28.67378 -2.082,-7.29327 -8.6388,-13.18744 -17.2658,-16.15559 -6.017,-2.07017 -7.4878,-3.05282 -22.1923,-3.15251 l -17.137,0.9942 1.6997,-3.31367 c 0.5314,-1.03592 3.6852,-6.05181 6.8574,-11.46282 7.3727,-12.57634 10.2179,-18.56215 14.1897,-30.48377 3.7973,-11.39768 4.0208,-13.58954 1.3559,-19.82576 -2.222,-5.1998 -3.7396,-6.39516 -10.452,-10.73132 -3.3174,-2.14306 -5.3059,-2.54698 -5.2841,-4.00469 0.016,-1.0948 2.3431,-11.0299 4.3847,-19.87795 5.5366,-23.99341 6.7385,-30.19764 7.3782,-51.6628 0.6568,-22.03866 1.3551,-39.50175 4.3771,-57.26778 0.5112,-3.00555 0.6183,-5.26231 0.9577,-7.19914 1.055,-6.02081 2.1889,-8.95003 7.0005,-21.67033 8.8903,-23.50289 10.0617,-29.4333 9.5183,-41.19323 -0.8434,-18.25101 -6.1368,-55.93309 -14.5008,-100.12527 -8.1861,-43.25261 -15.4123,-68.05002 -25.4095,-91.23078 -12.3394,-28.61163 -27.6949,-53.05819 -43.6533,-71.93136 -2.5648,-3.03308 -7.2145,-8.27386 -6.3768,-8.4112 2.7214,-0.44609 24.5021,17.56066 30.1481,23.20531 5.6064,5.60506 10.7812,11.85852 15.4447,19.47936 6.5671,10.73154 11.9811,24.4014 19.6243,42.19171 4.0416,9.40726 6.7635,21.01336 10.6568,33.66267 3.0319,8.82125 6.9632,17.46523 8.9429,26.74589 8.4357,39.54578 12.2654,81.63917 20.5829,110.22147 3.9054,14.15498 5.2514,21.78863 5.1078,32.24489 -0.078,5.65296 -0.355,9.95637 -1.5953,14.11877 -1.2442,4.17513 -3.4559,8.20857 -6.5265,13.44556 -12.8088,21.84589 -15.1161,27.42655 -14.3511,42.1797 0.1498,2.88822 0.4914,5.63971 0.7221,8.28197 1.5386,17.61893 4.9374,30.38037 13.3928,46.43242 3.3309,6.3235 6.1367,11.13814 8.0614,14.9517 7.344,14.55141 5.6722,13.67993 7.012,18.5255 0.9991,3.61358 1.289,15.81732 1.3881,28.58512 0.097,12.46742 1.4143,24.97475 1.7417,27.87136 0.9376,8.29576 2.3122,65.05968 0.3384,72.66897 -2.3642,9.11486 -12.3975,49.02874 -13.5678,51.44772 -0.8216,1.6984 -4.0057,1.97769 -4.3753,-0.86636 z"
         id="path3577-9"
         sodipodi:nodetypes="ssssscssssssssssssssssssscscssssssssssssss" />
      <path
         style="fill:#ffffff;fill-opacity:1;stroke:none;stroke-width:3.65345;stroke-linejoin:round;paint-order:fill markers stroke"
         d="m 789.775,744.46676 c -7.4049,-4.68106 -14.7912,-8.13995 -15.6698,-8.47355 -17.5379,-6.6592 -24.2597,-12.39737 -27.3118,-19.98658 -3.6781,-9.14583 -3.0167,-8.69051 5.0555,-8.88267 3.7559,-0.0894 11.735,-7.29178 13.7689,-11.71829 1.0141,-2.20718 1.9641,-2.45715 2.9846,-2.66012 1.0205,-0.20304 12.3868,-1.07474 24.8609,-2.13429 27.256,-2.31516 39.548,-3.56561 47.6828,-7.20957 23.5321,-8.48583 61.1967,-15.19892 74.136,-16.37309 17.5801,-1.09105 31.9965,1.63578 46.0519,-0.16596 9.2045,-1.17987 17.6597,-5.01184 25.9391,-8.62249 11.2925,-4.92458 22.1823,-10.32521 33.5042,-16.21139 27.9997,-14.55703 56.9507,-29.60528 83.7014,-46.235 36.457,-22.98725 75.0575,-61.14015 95.131,-94.21529 1.6718,-2.75469 4.6039,-7.998 5.4555,-7.63178 1.537,0.66107 -8.4948,28.43816 -12.2987,35.83541 -7.1133,13.83295 -15.8166,23.9026 -33.3164,39.31003 -15.7185,13.83908 -19.6182,17.04928 -35.5542,27.94436 -7.2702,4.97042 -23.7128,17.57251 -28.1142,20.97342 -3.9342,1.96726 -5.9634,3.84946 -10.9634,6.05951 -29.5198,13.04801 -53.9983,25.06861 -82.4336,43.9987 -15.0506,10.1706 -28.1144,18.32387 -42.4071,21.36981 -7.7096,1.64291 -13.2249,0.97869 -27.0164,-1.88743 -15.8473,-3.29331 -28.4648,-3.7298 -36.5904,-1.04176 -6.7109,2.22004 -19.7747,8.3467 -29.8166,14.12643 -5.0883,2.92868 -13.997,10.07392 -22.0577,16.95663 -6.1401,5.24281 -11.8497,10.23486 -14.4801,13.85214 -2.5418,3.49541 -4.2861,6.35698 -7.2131,8.31068 -3.6311,2.42369 -6.8414,5.14976 -18.4891,9.10442 l -4.9387,1.67679 z"
         id="path3579-4"
         sodipodi:nodetypes="sssssssccssscssssscscsssssssscs" />
      <path
         style="fill:#ffffff;fill-opacity:1;stroke:none;stroke-width:3.65345;stroke-linejoin:round;paint-order:fill markers stroke"
         d="m 256.2579,1136.7089 c -5.3108,-14.8385 -7.2304,-23.8833 -7.4323,-41.1124 -0.1869,-15.9473 0.648,-16.3347 3.7936,-31.8513 4.7106,-23.2363 5.767,-27.1508 12.4571,-44.8723 3.1643,-8.3817 6.9489,-20.31126 8.6633,-26.17023 4.0012,-13.67396 3.4073,-14.48394 17.9611,-39.12649 17.3867,-29.43915 18.3581,-33.21228 31.1122,-67.41892 6.0915,-16.33768 10.3336,-26.0256 16.339,-34.95095 6.2546,-9.29582 11.5274,-13.49664 29.682,-21.27541 21.0476,-9.01837 26.5692,-14.10484 39.1139,-37.93659 8.2404,-15.65472 10.0438,-21.75045 12.6009,-40.50611 2.0017,-14.68153 4.0692,-24.1477 6.6109,-32.79442 2.345,-7.97707 8.1038,-13.41775 14.7147,-22.13957 4.13,-5.44877 11.5634,-15.96752 15.8095,-23.74417 13.5994,-24.90684 34.5496,-52.10234 47.3432,-63.72149 6.406,-5.81794 32.2046,-27.68681 36.7375,-30.9042 1.5507,-1.10072 9.8069,3.70245 16.0944,8.88914 8.5157,7.02473 16.7098,15.28862 38.9796,43.32693 l 3.08,3.55559 1.1617,1.7849 -2.1053,3.28927 c -2.8121,4.39308 -20.9408,21.38169 -25.7795,25.56133 -1.0104,0.87279 -11.615,6.6111 -21.438,10.75596 -27.1938,11.47455 -39.8497,17.77624 -50.3636,27.01373 -3.6765,3.23026 -4.4825,4.25713 -5.8089,9.42566 -1.4114,5.49983 -1.529,6.10909 -0.2487,10.39371 0.7579,2.5358 1.8657,5.75926 1.9492,6.4762 0.1254,1.07648 -8.4539,8.09719 -18.0326,16.53388 -22.8463,20.12255 -30.306,27.22709 -36.1557,36.22449 -8.4987,13.07183 -33.3816,40.52694 -44.2594,51.54259 -4.4126,4.46854 -12.8999,10.16009 -21.5055,15.95417 -23.887,16.0828 -26.885,19.2985 -43.4822,49.10869 -8.0264,14.41616 -24.5809,47.77438 -35.6773,71.76953 -10.97,23.72197 -17.7928,40.75468 -23.1405,56.57288 -5.3458,15.8123 -8.9803,30.4233 -11.783,49.3543 -1.6382,11.0653 -3.0297,16.6032 -3.1813,41.5009 -0.068,11.1939 0.5067,22.7209 0.7322,28.2646 0.087,2.1348 0.01,3.3823 -0.012,3.382 -1.6978,-3.398 -1.3181,-2.0791 -4.5302,-12.1559 z"
         id="path3581-8"
         sodipodi:nodetypes="csssssssssssssssssccssssscssssssssssscc" />
      <path
         style="fill:#ffffff;fill-opacity:1;stroke:none;stroke-width:3.65345;stroke-linejoin:round;paint-order:fill markers stroke"
         d="m 936.0124,1162.9161 c -6.6067,-0.7976 -13.2078,-2.1582 -20.3706,-4.8151 -7.6548,-2.8393 -15.9731,-7.1339 -26.3342,-12.9935 -18.4817,-10.4521 -23.9424,-13.8475 -39.4555,-25.6696 -7.8631,-5.9923 -23.0202,-17.2874 -27.9562,-20.5642 -7.4664,-4.9567 -6.9216,-4.8539 -17.9303,-16.7134 -28.3198,-30.5087 -36.237,-38.1213 -67.7659,-63.2741 -3.8269,-3.053 -7.541,-6.1594 -10.8792,-9.3226 -10.2315,-9.69521 -17.5847,-19.64175 -19.9242,-27.12799 -0.7051,-2.25626 -1.5894,-11.20342 -2.6793,-19.77434 -2.2167,-17.43217 -3.9668,-23.48863 -8.4111,-30.67029 -3.6207,-5.85086 -21.6078,-25.20068 -28.5507,-30.5942 -2.7026,-2.09951 -13.5694,-8.40393 -24.91,-13.77087 -25.6906,-12.1582 -28.0328,-15.82793 -42.7949,-36.10235 -5.3047,-7.28548 -13.6551,-18.29633 -19.0846,-24.23043 -11.552,-12.6254 -17.2988,-19.66089 -30.3681,-39.39243 -4.8872,-7.37853 -8.1608,-11.65183 -10.6993,-16.21781 -3.5674,-6.41658 -6.0022,-13.27819 -12.2148,-28.98495 -4.4803,-11.32728 -8.7866,-22.0276 -9.0189,-22.61189 -0.5721,-1.43959 8.7811,-9.90996 13.8387,-13.3097 3.915,-2.63167 13.2394,-6.21194 24.5064,-10.98626 11.2671,-4.77432 23.5687,-10.59682 27.2339,-11.76914 l 7.1191,-2.62303 2.0622,2.35535 c 5.8987,6.73706 20.0885,37.46699 42.7982,93.83328 30.1091,74.73214 36.3711,87.51825 43.9244,97.52376 9.8091,12.99379 33.6228,52.18192 38.2223,63.11508 0.1518,0.36077 1.3072,2.55971 2.3042,5.68512 1.2942,4.05707 2.594,9.62986 3.8932,14.30157 8.471,30.46092 9.8745,33.04608 37.0935,61.49452 46.2831,48.3733 96.9548,91.4056 115.7705,103.2792 24.1169,15.219 65.5615,31.9671 88.7684,38.1868 10.0167,2.6845 5.527,3.149 -7.0027,2.8267 -5.9074,-0.1521 -17.4433,-0.6315 -21.1845,-1.0832 z"
         id="path3583-0"
         sodipodi:nodetypes="sssssssssssssssssssssscsssssssssss" />
    </g>
  </g>
</svg>
